<svg width="1440" height="900" viewBox="0 0 1440 900" fill="none" xmlns="http://www.w3.org/2000/svg">
    <g clip-path="url(#clip0)">
    <rect width="1752" height="1243" transform="translate(-312 -127)" fill="#F5F8FB"/>
    <path d="M506.29 98.2569C262.215 348.048 383.825 728.499 701.108 806.977C630.065 881.33 547.036 910.953 450.425 903.65C357.562 896.571 280.794 853.219 217.46 786.598C82.9059 646.866 51.652 415.532 144.541 252.963C219.492 119.787 358.166 59.2731 506.29 98.2569Z" fill="#0E94CE" fill-opacity="0.03"/>
    <path d="M747.227 1047.9C929.726 921.552 1023.76 758.676 1041.56 549.847C1042.77 536.002 1060.87 516.399 1075.48 511.257C1155.15 487.451 1235.74 467.086 1316.02 445.573C1346.56 651.285 1143.7 1022.79 747.227 1047.9Z" fill="#0E94CE" fill-opacity="0.03"/>
    <path d="M1226.47 102.029C1141.59 124.771 1058.17 148.352 974.981 168.185C963.512 171.258 943.767 161.798 936.413 152.705C818.037 -18.4068 656.001 -113.897 444.263 -133.377C703.073 -277.711 1104.31 -156.578 1226.47 102.029Z" fill="#0E94CE" fill-opacity="0.03"/>
    </g>
    <defs>
    <clipPath id="clip0">
    <rect width="1752" height="1243" fill="white" transform="translate(-312 -127)"/>
    </clipPath>
    </defs>
</svg>
