<svg width="103" height="93" viewBox="0 0 103 93" fill="none" xmlns="http://www.w3.org/2000/svg">
<circle cx="51" cy="42" r="42" fill="#0E94CE"/>
<rect x="30.6481" y="19.6481" width="41.4815" height="9.07407" fill="white" fill-opacity="0.5" stroke="white" stroke-width="1.2963"/>
<rect x="30.6481" y="33.9079" width="41.4815" height="9.07407" fill="white" fill-opacity="0.5" stroke="white" stroke-width="1.2963"/>
<g filter="url(#filter0_d)">
<rect x="30" y="50.1113" width="42.7778" height="10.3704" fill="white"/>
</g>
<path d="M41.3679 54.3086H42.2553C42.2379 53.4485 41.5046 52.8395 40.4208 52.8395C39.3519 52.8395 38.549 53.4411 38.5515 54.3409C38.5515 55.0717 39.071 55.4918 39.9087 55.7081L40.4879 55.8572C41.0373 55.9964 41.4002 56.168 41.4027 56.5632C41.4002 56.9982 40.9876 57.2891 40.386 57.2891C39.8093 57.2891 39.3619 57.0305 39.3246 56.4961H38.4173C38.4546 57.5078 39.2077 58.0771 40.3935 58.0771C41.614 58.0771 42.3224 57.468 42.3249 56.5707C42.3224 55.6882 41.5941 55.2855 40.8285 55.104L40.3512 54.9847C39.9336 54.8853 39.4812 54.7088 39.4862 54.2837C39.4886 53.9009 39.8317 53.62 40.4084 53.62C40.9577 53.62 41.3207 53.8761 41.3679 54.3086ZM43.1773 58H44.0772V54.1818H43.1773V58ZM43.6298 53.6399C43.9156 53.6399 44.1493 53.4212 44.1493 53.1527C44.1493 52.8817 43.9156 52.663 43.6298 52.663C43.3414 52.663 43.1077 52.8817 43.1077 53.1527C43.1077 53.4212 43.3414 53.6399 43.6298 53.6399ZM46.733 59.5114C47.7647 59.5114 48.5253 59.0391 48.5253 58.0621V54.1818H47.6379V54.8132H47.5882C47.4514 54.5373 47.1656 54.1321 46.4919 54.1321C45.6095 54.1321 44.9159 54.8232 44.9159 56.0785C44.9159 57.3239 45.6095 57.9453 46.4894 57.9453C47.1432 57.9453 47.449 57.5948 47.5882 57.3139H47.6329V58.0373C47.6329 58.5991 47.26 58.8303 46.748 58.8303C46.2061 58.8303 45.9674 58.5742 45.858 58.3505L45.0477 58.5469C45.2117 59.0813 45.7611 59.5114 46.733 59.5114ZM46.7405 57.2393C46.1464 57.2393 45.8332 56.777 45.8332 56.0735C45.8332 55.38 46.1414 54.8704 46.7405 54.8704C47.3197 54.8704 47.6379 55.3501 47.6379 56.0735C47.6379 56.8018 47.3147 57.2393 46.7405 57.2393ZM50.4174 55.7628C50.4174 55.2109 50.7505 54.8928 51.2253 54.8928C51.6901 54.8928 51.9685 55.1985 51.9685 55.7081V58H52.8684V55.5689C52.8709 54.6541 52.3489 54.1321 51.5609 54.1321C50.9891 54.1321 50.5964 54.4055 50.4224 54.8306H50.3776V54.1818H49.5175V58H50.4174V55.7628ZM58.0931 56.3942C58.0931 56.9759 57.678 57.2642 57.2802 57.2642C56.8477 57.2642 56.5593 56.9585 56.5593 56.4737V54.1818H55.6595V56.6129C55.6595 57.5302 56.1815 58.0497 56.9322 58.0497C57.5039 58.0497 57.9066 57.7489 58.0807 57.3214H58.1204V58H58.9929V54.1818H58.0931V56.3942ZM59.9883 59.4318H60.8881V57.3984H60.9254C61.0671 57.6768 61.3629 58.0671 62.0192 58.0671C62.919 58.0671 63.5927 57.3537 63.5927 56.0959C63.5927 54.8232 62.8991 54.1321 62.0167 54.1321C61.343 54.1321 61.0621 54.5373 60.9254 54.8132H60.8732V54.1818H59.9883V59.4318ZM60.8707 56.0909C60.8707 55.3501 61.1889 54.8704 61.7681 54.8704C62.3672 54.8704 62.6754 55.38 62.6754 56.0909C62.6754 56.8068 62.3622 57.3288 61.7681 57.3288C61.1939 57.3288 60.8707 56.8317 60.8707 56.0909Z" fill="#01A4E0"/>
<circle cx="51" cy="61" r="8" fill="#00C368"/>
<path d="M47.8 60.8004L50.2 63.2004L55 58.4004" stroke="white" stroke-width="1.5"/>
<defs>
<filter id="filter0_d" x="0" y="22.1113" width="102.778" height="70.3704" filterUnits="userSpaceOnUse" color-interpolation-filters="sRGB">
<feFlood flood-opacity="0" result="BackgroundImageFix"/>
<feColorMatrix in="SourceAlpha" type="matrix" values="0 0 0 0 0 0 0 0 0 0 0 0 0 0 0 0 0 0 127 0"/>
<feOffset dy="2"/>
<feGaussianBlur stdDeviation="15"/>
<feColorMatrix type="matrix" values="0 0 0 0 0.022743 0 0 0 0 0.387817 0 0 0 0 0.545833 0 0 0 0.05 0"/>
<feBlend mode="normal" in2="BackgroundImageFix" result="effect1_dropShadow"/>
<feBlend mode="normal" in="SourceGraphic" in2="effect1_dropShadow" result="shape"/>
</filter>
</defs>
</svg>
