<?xml version="1.0" encoding="utf-8"?>
<!-- Generator: Adobe Illustrator 25.2.2, SVG Export Plug-In . SVG Version: 6.00 Build 0)  -->
<svg version="1.1" id="Livello_1" xmlns="http://www.w3.org/2000/svg" xmlns:xlink="http://www.w3.org/1999/xlink" x="0px" y="0px"
	 width="103" height="93" viewBox="0 0 140 140" style="enable-background:new 0 0 140 140;" xml:space="preserve">
<style type="text/css">
	.st0{fill:#00A3DF;}
	.st1{fill:none;stroke:#EFEFEF;stroke-miterlimit:10;}
	.st2{fill:#FFFFFF;}
</style>
<circle class="st0" cx="70" cy="70" r="62"/>
<circle class="st1" cx="70" cy="70" r="68"/>
<g>
	<g>
		<path class="st2" d="M77.5,94.3H37.4V81.7c0-6.1,5-11.1,11.1-11.1h15.3c12.2,0.1,22.1-9.8,22.2-22s-9.8-22.1-22-22.2
			s-22.1,9.8-22.2,22c0,5.4,2,10.7,5.6,14.7C37.6,63.7,30,71.8,30,81.7V98c0,2,1.7,3.7,3.7,3.7h43.8c2,0,3.7-1.7,3.7-3.7
			C81.2,96,79.5,94.3,77.5,94.3L77.5,94.3z M63.9,34c8,0.2,14.4,6.9,14.2,15c-0.2,7.6-6.2,13.7-13.7,14.1h-1.2
			c-8-0.5-14.1-7.4-13.6-15.4C50,40,56.3,34.1,63.9,34L63.9,34z"/>
	</g>
	<path class="st2" d="M106.3,90.2H84.1c-2,0-3.7-1.7-3.7-3.7c0-2,1.7-3.7,3.7-3.7h22.3c2,0,3.7,1.7,3.7,3.7S108.4,90.2,106.3,90.2
		L106.3,90.2z"/>
	<path class="st2" d="M95.2,101.4c-2,0-3.7-1.7-3.7-3.7V75.4c0-2,1.7-3.7,3.7-3.7c2,0,3.7,1.7,3.7,3.7v22.3
		C98.9,99.7,97.2,101.4,95.2,101.4L95.2,101.4z"/>
</g>
</svg>
