<?xml version="1.0" encoding="utf-8"?>
<!-- Generator: Adobe Illustrator 25.2.3, SVG Export Plug-In . SVG Version: 6.00 Build 0)  -->
<svg version="1.1" id="Livello_1" xmlns="http://www.w3.org/2000/svg" xmlns:xlink="http://www.w3.org/1999/xlink" x="0px" y="0px"
	 viewBox="0 0 200 200" style="enable-background:new 0 0 200 200;" xml:space="preserve">
<style type="text/css">
	.st0{fill:#3971B7;}
	.st1{opacity:0.3;fill:#3971B7;enable-background:new    ;}
	.st2{opacity:0.3;}
	.st3{opacity:0.6;fill:#3971B7;enable-background:new    ;}
</style>
<g>
	<g>
		<g>
			<path class="st0" d="M-271.4-27.6c-0.2,0-0.4,0-0.6-0.1c-0.7-0.3-1-1.1-0.6-1.9l9.2-19c1.2-2.5,0.1-5.6-2.4-6.8l-33.6-16.2
				c-1.3-0.6-2.6-0.7-3.9-0.2c-1.3,0.5-2.3,1.4-2.9,2.6l-15.1,31c-0.3,0.7-1.1,1-1.9,0.6c-0.7-0.3-1-1.1-0.6-1.9l15.1-31
				c0.9-1.9,2.5-3.3,4.5-4c2-0.7,4.2-0.6,6.1,0.3l33.6,16.2c3.9,1.9,5.6,6.6,3.7,10.5l-9.2,19C-270.4-27.9-270.9-27.6-271.4-27.6z"
				/>
			<path class="st0" d="M-306.1,35.4c-1.1,0-2.3-0.3-3.4-0.8l-16.9-8.1c-0.7-0.3-1-1.1-0.6-1.9c0.3-0.7,1.1-1,1.9-0.6l16.9,8.1
				c2.5,1.2,5.6,0.1,6.8-2.4l8-16.6c0.3-0.7,1.1-1,1.9-0.6c0.7,0.3,1,1.1,0.6,1.9l-8,16.6C-300.3,33.8-303.2,35.4-306.1,35.4z"/>
			<path class="st0" d="M-297.4,24.6c-0.2,0-0.4,0-0.6-0.1l-24.6-11.8c-0.7-0.3-1-1.1-0.6-1.9c0.3-0.7,1.1-1,1.9-0.6l24.6,11.8
				c0.7,0.3,1,1.1,0.6,1.9C-296.4,24.3-296.9,24.6-297.4,24.6z"/>
			<path class="st0" d="M-263.5-45.5c-0.2,0-0.4,0-0.6-0.1l-43.5-20.9c-0.7-0.3-1-1.1-0.6-1.9c0.3-0.7,1.1-1,1.9-0.6l43.5,20.9
				c0.7,0.3,1,1.1,0.6,1.9C-262.4-45.8-262.9-45.5-263.5-45.5z"/>
			<path class="st0" d="M-318.3,21.7c-0.2,0-0.4,0-0.6-0.1l-4.7-2.2c-0.7-0.3-1-1.1-0.6-1.9c0.3-0.7,1.1-1,1.9-0.6l4.7,2.2
				c0.7,0.3,1,1.1,0.6,1.9C-317.3,21.4-317.8,21.7-318.3,21.7z"/>
			<path class="st0" d="M-372.4,49.3c-0.2,0-0.4,0-0.6-0.1c-0.7-0.3-1-1.1-0.6-1.9l13.2-27.3l5.3-29.4c0.1-5.1,2.7-9.9,6.9-12.8
				l28-19.4c1.8-1.3,3.9-1.7,6.1-1.3c2.2,0.4,4,1.6,5.2,3.5c2.3,3.5,1.5,8.3-1.9,10.8l-20.2,15.1c1.8,2,5.4,6.6,7.8,12.8
				c1.9,4.9,2.6,10,2.1,14.8c-0.6,6.1-3.2,12-7.5,17.6c-0.5,0.6-1.3,0.7-1.9,0.3c-0.6-0.5-0.7-1.3-0.3-1.9c4.1-5.2,6.4-10.6,7-16.2
				c0.5-4.4-0.2-9-1.9-13.6c-3-7.8-8.2-12.9-8.2-12.9c-0.3-0.3-0.4-0.7-0.4-1.1c0-0.4,0.2-0.8,0.5-1l21.4-16
				c2.2-1.6,2.8-4.8,1.3-7.1c-0.8-1.2-2-2-3.4-2.3c-1.4-0.3-2.8,0-4,0.9l-27.9,19.4c-3.5,2.4-5.6,6.5-5.7,10.7c0,0.1,0,0.1,0,0.2
				l-5.3,29.7c0,0.1-0.1,0.3-0.1,0.4l-13.2,27.5C-371.4,49-371.9,49.3-372.4,49.3z"/>
			<path class="st0" d="M-278.8-12.4c-1.3,0-2.5-0.3-3.7-1c-1.7-1-3-2.6-3.5-4.5l0,0c-1.1-3.9,1.2-8.1,5.2-9.1l12.2-3.4
				c3.9-1.1,8.1,1.2,9.1,5.2c1.1,3.9-1.2,8.1-5.2,9.1l-12.2,3.4C-277.5-12.5-278.1-12.4-278.8-12.4z M-266.5-27.9
				c-0.4,0-0.8,0.1-1.3,0.2l-12.2,3.4c-2.5,0.7-3.9,3.3-3.3,5.7l0,0c0.3,1.2,1.1,2.2,2.2,2.8c1.1,0.6,2.3,0.8,3.5,0.4l12.2-3.4
				c2.5-0.7,3.9-3.3,3.3-5.7c-0.3-1.2-1.1-2.2-2.2-2.8C-265-27.7-265.7-27.9-266.5-27.9z"/>
			<path class="st0" d="M-281.5,1.1c-3.3,0-6.2-2.2-7.2-5.4c-1.1-3.9,1.2-8.1,5.2-9.1l12.2-3.4c3.9-1.1,8.1,1.2,9.1,5.2
				c1.1,3.9-1.2,8.1-5.2,9.1l-12.2,3.4C-280.2,1-280.8,1.1-281.5,1.1z M-269.3-14.4c-0.4,0-0.8,0.1-1.3,0.2l-12.2,3.4
				c-2.5,0.7-3.9,3.3-3.3,5.7c0.7,2.5,3.3,3.9,5.7,3.3l12.2-3.4c1.2-0.3,2.2-1.1,2.8-2.2c0.6-1.1,0.8-2.3,0.4-3.5
				C-265.4-13.1-267.2-14.4-269.3-14.4z"/>
			<path class="st0" d="M-288.5,15.7c-1.3,0-2.5-0.3-3.7-1c-1.7-1-3-2.6-3.5-4.5s-0.3-3.9,0.7-5.7c1-1.7,2.6-3,4.5-3.5l12.2-3.4
				c3.9-1.1,8.1,1.2,9.1,5.2c1.1,3.9-1.2,8.1-5.2,9.1l-12.2,3.4C-287.2,15.6-287.9,15.7-288.5,15.7z M-276.3,0.2
				c-0.4,0-0.8,0.1-1.3,0.2l-12.2,3.4c-1.2,0.3-2.2,1.1-2.8,2.2c-0.6,1.1-0.8,2.3-0.4,3.5l0,0c0.3,1.2,1.1,2.2,2.2,2.8
				c1.1,0.6,2.3,0.8,3.5,0.4l12.2-3.4c2.5-0.7,3.9-3.3,3.3-5.7C-272.4,1.5-274.2,0.2-276.3,0.2z"/>
			<path class="st0" d="M-341.6,69.9c-0.2,0-0.4,0-0.6-0.1c-0.7-0.3-1-1.1-0.6-1.9l12.4-25.8c0.3-0.5,0.7-0.8,1.3-0.8
				c5.4,0.1,10.3-1.3,14.4-4.2c3.1-2.2,4.6-4.5,4.6-4.5c0.4-0.6,1.3-0.8,1.9-0.4c0.6,0.4,0.8,1.3,0.4,1.9c-0.1,0.1-1.8,2.7-5.2,5.2
				c-3.1,2.2-8.2,4.8-15.3,4.8l-12,25C-340.6,69.6-341.1,69.9-341.6,69.9z"/>
		</g>
		<path class="st1" d="M-399,23.5c-0.6,0-1.2-0.4-1.4-1.1c-1.5-6.4-2.3-12.9-2.3-19.5c0-3.6,0.2-7.2,0.7-10.8
			c0.1-0.8,0.8-1.3,1.5-1.2c0.8,0.1,1.3,0.8,1.2,1.5c-0.4,3.4-0.6,6.9-0.6,10.4c0,6.4,0.7,12.8,2.2,18.9c0.2,0.8-0.3,1.5-1,1.6
			C-398.8,23.4-398.9,23.5-399,23.5z"/>
		<path class="st1" d="M-317.6,87.9c-13.5,0-26.4-3-38.3-9.1c-11.4-5.8-21.5-14.2-29.3-24.3c-0.5-0.6-0.4-1.5,0.3-1.9
			c0.6-0.5,1.5-0.4,1.9,0.3c7.5,9.9,17.3,18,28.4,23.5c11.5,5.8,24,8.8,37.1,8.8c5,0,10-0.5,14.8-1.3c0.8-0.1,1.5,0.4,1.6,1.1
			s-0.4,1.5-1.1,1.6C-307.2,87.4-312.4,87.9-317.6,87.9z"/>
		<path class="st1" d="M-237.5,28.7c-0.1,0-0.3,0-0.4,0c-0.8-0.2-1.2-1-1-1.7c0.7-2.5,1.3-5.1,1.7-7.6c0.1-0.8,0.9-1.3,1.6-1.1
			c0.8,0.1,1.3,0.9,1.1,1.6c-0.5,2.6-1,5.3-1.8,7.8C-236.3,28.3-236.9,28.7-237.5,28.7z"/>
		<path class="st1" d="M-235.7-13.3c-0.6,0-1.2-0.4-1.4-1.1c-2.4-11.3-7.1-21.8-13.9-31.2c-0.5-0.6-0.3-1.5,0.3-1.9
			c0.6-0.5,1.5-0.3,1.9,0.3c7.1,9.7,11.9,20.5,14.4,32.2c0.1,0.8-0.3,1.5-1.1,1.6C-235.6-13.3-235.7-13.3-235.7-13.3z"/>
		<g>
			<g class="st2">
				<path class="st0" d="M-396.5,38.9h-2.9c-0.8,0-1.4-0.6-1.4-1.4s0.6-1.4,1.4-1.4h2.9c0.8,0,1.4,0.6,1.4,1.4
					S-395.8,38.9-396.5,38.9z"/>
				<path class="st0" d="M-385.1,38.9h-3.3c-0.8,0-1.4-0.6-1.4-1.4s0.6-1.4,1.4-1.4h3.3c0.8,0,1.4,0.6,1.4,1.4
					S-384.3,38.9-385.1,38.9z"/>
			</g>
			<g>
				<path class="st1" d="M-392.4,46.2c-0.8,0-1.4-0.6-1.4-1.4v-2.9c0-0.8,0.6-1.4,1.4-1.4s1.4,0.6,1.4,1.4v2.9
					C-391,45.6-391.6,46.2-392.4,46.2z"/>
				<path class="st1" d="M-392.4,35.2c-0.8,0-1.4-0.6-1.4-1.4v-3.3c0-0.8,0.6-1.4,1.4-1.4s1.4,0.6,1.4,1.4v3.3
					C-391,34.5-391.6,35.2-392.4,35.2z"/>
			</g>
		</g>
		<g class="st2">
			<g>
				<path class="st0" d="M-239.4,3.3h-2.9c-0.8,0-1.4-0.6-1.4-1.4s0.6-1.4,1.4-1.4h2.9c0.8,0,1.4,0.6,1.4,1.4S-238.6,3.3-239.4,3.3z
					"/>
				<path class="st0" d="M-228,3.3h-3.3c-0.8,0-1.4-0.6-1.4-1.4s0.6-1.4,1.4-1.4h3.3c0.8,0,1.4,0.6,1.4,1.4S-227.2,3.3-228,3.3z"/>
			</g>
			<g>
				<path class="st0" d="M-235.3,10.6c-0.8,0-1.4-0.6-1.4-1.4V6.3c0-0.8,0.6-1.4,1.4-1.4c0.8,0,1.4,0.6,1.4,1.4v2.9
					C-233.9,10-234.5,10.6-235.3,10.6z"/>
				<path class="st0" d="M-235.3-0.4c-0.8,0-1.4-0.6-1.4-1.4v-3.3c0-0.8,0.6-1.4,1.4-1.4c0.8,0,1.4,0.6,1.4,1.4v3.3
					C-233.9-1.1-234.5-0.4-235.3-0.4z"/>
			</g>
		</g>
		<g class="st2">
			<g>
				<path class="st0" d="M-340.3-99.6h-2.9c-0.8,0-1.4-0.6-1.4-1.4c0-0.8,0.6-1.4,1.4-1.4h2.9c0.8,0,1.4,0.6,1.4,1.4
					C-338.9-100.2-339.5-99.6-340.3-99.6z"/>
				<path class="st0" d="M-328.9-99.6h-3.3c-0.8,0-1.4-0.6-1.4-1.4c0-0.8,0.6-1.4,1.4-1.4h3.3c0.8,0,1.4,0.6,1.4,1.4
					C-327.5-100.2-328.1-99.6-328.9-99.6z"/>
			</g>
			<g>
				<path class="st0" d="M-336.1-92.3c-0.8,0-1.4-0.6-1.4-1.4v-2.9c0-0.8,0.6-1.4,1.4-1.4s1.4,0.6,1.4,1.4v2.9
					C-334.8-92.9-335.4-92.3-336.1-92.3z"/>
				<path class="st0" d="M-336.1-103.3c-0.8,0-1.4-0.6-1.4-1.4v-3.3c0-0.8,0.6-1.4,1.4-1.4s1.4,0.6,1.4,1.4v3.3
					C-334.8-104-335.4-103.3-336.1-103.3z"/>
			</g>
		</g>
		<g class="st2">
			<g>
				<path class="st0" d="M-243.7,49.5h-2.9c-0.8,0-1.4-0.6-1.4-1.4c0-0.8,0.6-1.4,1.4-1.4h2.9c0.8,0,1.4,0.6,1.4,1.4
					C-242.3,48.8-242.9,49.5-243.7,49.5z"/>
				<path class="st0" d="M-232.2,49.5h-3.3c-0.8,0-1.4-0.6-1.4-1.4c0-0.8,0.6-1.4,1.4-1.4h3.3c0.8,0,1.4,0.6,1.4,1.4
					C-230.8,48.8-231.5,49.5-232.2,49.5z"/>
			</g>
			<g>
				<path class="st0" d="M-239.5,56.7c-0.8,0-1.4-0.6-1.4-1.4v-2.9c0-0.8,0.6-1.4,1.4-1.4s1.4,0.6,1.4,1.4v2.9
					C-238.1,56.1-238.8,56.7-239.5,56.7z"/>
				<path class="st0" d="M-239.5,45.7c-0.8,0-1.4-0.6-1.4-1.4v-3.3c0-0.8,0.6-1.4,1.4-1.4s1.4,0.6,1.4,1.4v3.3
					C-238.1,45-238.8,45.7-239.5,45.7z"/>
			</g>
		</g>
		<path class="st1" d="M-379.4,12.6c-2.5,0-4.5-2-4.5-4.5s2-4.5,4.5-4.5s4.5,2,4.5,4.5C-374.9,10.6-376.9,12.6-379.4,12.6z
			 M-379.4,6.4c-0.9,0-1.7,0.8-1.7,1.7c0,0.9,0.8,1.7,1.7,1.7c0.9,0,1.7-0.8,1.7-1.7C-377.7,7.2-378.4,6.4-379.4,6.4z"/>
		<path class="st1" d="M-321.1-77.1c-2.5,0-4.5-2-4.5-4.5s2-4.5,4.5-4.5c2.5,0,4.5,2,4.5,4.5S-318.6-77.1-321.1-77.1z M-321.1-83.3
			c-0.9,0-1.7,0.8-1.7,1.7s0.8,1.7,1.7,1.7c0.9,0,1.7-0.8,1.7-1.7S-320.1-83.3-321.1-83.3z"/>
		<path class="st1" d="M-257.3,39.1c-2.5,0-4.5-2-4.5-4.5s2-4.5,4.5-4.5c2.5,0,4.5,2,4.5,4.5S-254.8,39.1-257.3,39.1z M-257.3,32.9
			c-0.9,0-1.7,0.8-1.7,1.7c0,1,0.8,1.7,1.7,1.7c0.9,0,1.7-0.8,1.7-1.7C-255.5,33.6-256.3,32.9-257.3,32.9z"/>
	</g>
	<path class="st3" d="M-274.7,92.6c-12.3,0-22.3-10-22.3-22.3S-287,48-274.7,48s22.3,10,22.3,22.3
		C-252.4,82.6-262.4,92.6-274.7,92.6z M-274.7,50.8c-10.8,0-19.5,8.7-19.5,19.5c0,10.8,8.7,19.5,19.5,19.5
		c10.8,0,19.5-8.7,19.5-19.5S-263.9,50.8-274.7,50.8z"/>
	<g>
		<path class="st3" d="M-274.7,80h-0.2c-3.7,0-6.6-2.5-6.6-5.6c0-0.8,0.6-1.4,1.4-1.4c0.8,0,1.4,0.6,1.4,1.4c0,1.5,1.8,2.8,3.8,2.8
			h0.2c2.1,0,3.8-1.3,3.8-2.8s-1.8-2.8-3.8-2.8c-3.7,0-6.6-2.5-6.6-5.6v0c0-3.1,3-5.6,6.6-5.6h0.2c3.7,0,6.6,2.5,6.6,5.6
			c0,0.8-0.6,1.4-1.4,1.4c-0.8,0-1.4-0.6-1.4-1.4c0-1.5-1.8-2.8-3.8-2.8h-0.2c-2.1,0-3.8,1.3-3.8,2.8v0c0,1.5,1.8,2.8,3.8,2.8
			c3.7,0,6.6,2.5,6.6,5.6C-268,77.5-271,80-274.7,80z"/>
		<path class="st3" d="M-274.6,59.8c-0.8,0-1.4-0.6-1.4-1.4v-1.6c0-0.8,0.6-1.4,1.4-1.4c0.8,0,1.4,0.6,1.4,1.4v1.6
			C-273.2,59.2-273.8,59.8-274.6,59.8z"/>
		<path class="st3" d="M-274.6,85.2c-0.8,0-1.4-0.6-1.4-1.4V82c0-0.8,0.6-1.4,1.4-1.4c0.8,0,1.4,0.6,1.4,1.4v1.8
			C-273.2,84.6-273.8,85.2-274.6,85.2z"/>
	</g>
	<path class="st3" d="M-341.6-48.4c-0.1,0-0.2,0-0.3,0c-0.8-0.2-1.2-0.9-1-1.6l4.8-21.6l-50.2-11.1l-5.1,23.6
		c-0.1,0.8-0.9,1.2-1.6,1.1c-0.8-0.1-1.2-0.9-1.1-1.6l5.3-25c0.1-0.4,0.3-0.7,0.6-0.9c0.3-0.2,0.7-0.3,1-0.2l52.9,11.7
		c0.4,0.1,0.7,0.3,0.9,0.6c0.2,0.3,0.3,0.7,0.2,1l-5.1,23C-340.4-48.8-340.9-48.4-341.6-48.4z"/>
	<path class="st3" d="M-345.5-53.4c-0.1,0-0.2,0-0.3,0c-0.8-0.2-1.2-0.9-1-1.6l2-9c-0.8-0.4-1.5-1.1-2.1-1.9
		c-0.5-0.9-0.8-1.8-0.9-2.8l-32.2-7.1c-0.4,0.9-1.1,1.6-2,2.2c-0.9,0.5-1.8,0.8-2.8,0.8l-1.7,7.8c0.9,0.4,1.6,1.1,2.2,1.9
		c0.8,1.2,1.1,2.7,0.8,4.2c-0.2,0.8-0.9,1.2-1.6,1c-0.8-0.2-1.2-0.9-1-1.6c0.1-0.7,0-1.4-0.4-2c-0.4-0.6-1-1-1.8-1.2
		c-0.4-0.1-0.7-0.3-0.9-0.6c-0.2-0.3-0.3-0.7-0.2-1l2.3-10.2c0.1-0.4,0.3-0.7,0.6-0.9c0.3-0.2,0.7-0.3,1-0.2c0.8,0.2,1.5,0,2.1-0.4
		c0.6-0.4,1-1,1.2-1.7c0.1-0.4,0.3-0.7,0.6-0.9c0.3-0.2,0.7-0.3,1-0.2l34.6,7.6c0.4,0.1,0.7,0.3,0.9,0.6c0.2,0.3,0.3,0.7,0.2,1
		c-0.1,0.7,0,1.5,0.4,2.1c0.4,0.6,1,1,1.7,1.2c0.8,0.2,1.2,0.9,1,1.6l-2.3,10.2C-344.3-53.8-344.9-53.4-345.5-53.4z"/>
	<path class="st3" d="M-366.1-60.1c-0.3,0-0.6,0-1-0.1c-1.1-0.3-2.2-0.9-2.8-1.9c-0.6-1-0.9-2.2-0.6-3.3c0.5-2.4,2.9-3.9,5.3-3.4
		c2.4,0.5,3.9,2.9,3.4,5.3l0,0C-362.2-61.5-364-60.1-366.1-60.1z M-366.1-66.2c-0.8,0-1.5,0.5-1.6,1.3c-0.1,0.4,0,0.9,0.2,1.3
		c0.2,0.4,0.6,0.6,1,0.7c0.9,0.2,1.8-0.4,2-1.3c0.2-0.9-0.4-1.8-1.3-2C-365.8-66.2-366-66.2-366.1-66.2z M-363.1-63.9L-363.1-63.9
		L-363.1-63.9z"/>
	<g>
		<path class="st3" d="M-386.8-30.8C-386.8-30.8-386.8-30.8-386.8-30.8c-2.7,0-4.8-2.2-4.8-4.8c0-1.3,0.5-2.5,1.4-3.4
			c0.9-0.9,2.1-1.4,3.3-1.4h0c2.6,0,4.7,2.2,4.7,4.8c0,1.3-0.5,2.5-1.4,3.4C-384.3-31.3-385.5-30.8-386.8-30.8z M-386.8-37.5
			c-0.5,0-1,0.2-1.4,0.6c-0.4,0.4-0.6,0.9-0.6,1.4l0,0c0,0.5,0.2,1,0.6,1.4c0.4,0.4,0.9,0.6,1.4,0.6l0,0c0.5,0,1-0.2,1.4-0.6
			c0.4-0.4,0.6-0.9,0.6-1.4C-384.8-36.6-385.7-37.5-386.8-37.5L-386.8-37.5z M-390.2-35.6L-390.2-35.6L-390.2-35.6z"/>
		<path class="st3" d="M-359-16.8h-56.1c-0.8,0-1.4-0.6-1.4-1.4v-36.7c0-0.8,0.6-1.4,1.4-1.4h56.1c0.8,0,1.4,0.6,1.4,1.4v36.7
			C-357.6-17.4-358.3-16.8-359-16.8z M-413.7-19.5h53.3v-33.9h-53.3V-19.5z"/>
		<path class="st3" d="M-368.1-21.9h-38.2c-0.6,0-1.1-0.4-1.3-1c-0.4-1.4-1.4-2.5-2.7-3.1c-0.5-0.2-0.8-0.7-0.8-1.3v-18.8
			c0-0.5,0.3-1,0.8-1.3c1.2-0.6,2.2-1.6,2.6-2.8c0.2-0.5,0.7-0.9,1.3-0.9h38.4c0.6,0,1.1,0.4,1.3,0.9c0.5,1.4,1.5,2.4,2.9,3
			c0.5,0.2,0.9,0.7,0.9,1.3v18.5c0,0.6-0.4,1.1-0.9,1.3c-1.4,0.6-2.5,1.8-3,3.3C-367-22.3-367.5-21.9-368.1-21.9z M-405.3-24.7h36.2
			c0.7-1.5,1.9-2.8,3.4-3.6V-45c-1.4-0.8-2.5-1.9-3.2-3.3h-36.6c-0.6,1.3-1.6,2.3-2.8,3v17.1C-407-27.3-406-26.1-405.3-24.7z"/>
	</g>
</g>
<g>
	<g>
		<g>
			<g class="st2">
				<g>
					<path class="st0" d="M357.7-166.7h-2.9c-0.8,0-1.4-0.6-1.4-1.4c0-0.8,0.6-1.4,1.4-1.4h2.9c0.8,0,1.4,0.6,1.4,1.4
						C359.1-167.3,358.4-166.7,357.7-166.7z"/>
					<path class="st0" d="M369.1-166.7h-3.3c-0.8,0-1.4-0.6-1.4-1.4c0-0.8,0.6-1.4,1.4-1.4h3.3c0.8,0,1.4,0.6,1.4,1.4
						C370.5-167.3,369.9-166.7,369.1-166.7z"/>
				</g>
				<g>
					<path class="st0" d="M361.8-159.4c-0.8,0-1.4-0.6-1.4-1.4v-2.9c0-0.8,0.6-1.4,1.4-1.4c0.8,0,1.4,0.6,1.4,1.4v2.9
						C363.2-160,362.6-159.4,361.8-159.4z"/>
					<path class="st0" d="M361.8-170.5c-0.8,0-1.4-0.6-1.4-1.4v-3.3c0-0.8,0.6-1.4,1.4-1.4c0.8,0,1.4,0.6,1.4,1.4v3.3
						C363.2-171.1,362.6-170.5,361.8-170.5z"/>
				</g>
			</g>
			<g class="st2">
				<g>
					<path class="st0" d="M449.7-82.8h-2.9c-0.8,0-1.4-0.6-1.4-1.4c0-0.8,0.6-1.4,1.4-1.4h2.9c0.8,0,1.4,0.6,1.4,1.4
						C451.1-83.4,450.5-82.8,449.7-82.8z"/>
					<path class="st0" d="M461.1-82.8h-3.3c-0.8,0-1.4-0.6-1.4-1.4c0-0.8,0.6-1.4,1.4-1.4h3.3c0.8,0,1.4,0.6,1.4,1.4
						C462.5-83.4,461.9-82.8,461.1-82.8z"/>
				</g>
				<g>
					<path class="st0" d="M453.9-75.5c-0.8,0-1.4-0.6-1.4-1.4v-2.9c0-0.8,0.6-1.4,1.4-1.4s1.4,0.6,1.4,1.4v2.9
						C455.2-76.1,454.6-75.5,453.9-75.5z"/>
					<path class="st0" d="M453.9-86.6c-0.8,0-1.4-0.6-1.4-1.4v-3.3c0-0.8,0.6-1.4,1.4-1.4s1.4,0.6,1.4,1.4v3.3
						C455.2-87.2,454.6-86.6,453.9-86.6z"/>
				</g>
			</g>
			<g class="st2">
				<g>
					<path class="st0" d="M462.4-237.9h-2.9c-0.8,0-1.4-0.6-1.4-1.4s0.6-1.4,1.4-1.4h2.9c0.8,0,1.4,0.6,1.4,1.4
						S463.2-237.9,462.4-237.9z"/>
					<path class="st0" d="M473.9-237.9h-3.3c-0.8,0-1.4-0.6-1.4-1.4s0.6-1.4,1.4-1.4h3.3c0.8,0,1.4,0.6,1.4,1.4
						S474.6-237.9,473.9-237.9z"/>
				</g>
				<g>
					<path class="st0" d="M466.6-230.6c-0.8,0-1.4-0.6-1.4-1.4v-2.9c0-0.8,0.6-1.4,1.4-1.4s1.4,0.6,1.4,1.4v2.9
						C467.9-231.2,467.3-230.6,466.6-230.6z"/>
					<path class="st0" d="M466.6-241.7c-0.8,0-1.4-0.6-1.4-1.4v-3.3c0-0.8,0.6-1.4,1.4-1.4s1.4,0.6,1.4,1.4v3.3
						C467.9-242.3,467.3-241.7,466.6-241.7z"/>
				</g>
			</g>
			<path class="st1" d="M331.3-123.3c-2.5,0-4.5-2-4.5-4.5c0-2.5,2-4.5,4.5-4.5c2.5,0,4.5,2,4.5,4.5S333.8-123.3,331.3-123.3z
				 M331.3-129.5c-0.9,0-1.7,0.8-1.7,1.7c0,1,0.8,1.7,1.7,1.7c0.9,0,1.7-0.8,1.7-1.7C333-128.8,332.2-129.5,331.3-129.5z"/>
			<g class="st2">
				<path class="st0" d="M402.2-232.3c-0.6,0-1.1-0.4-1.3-1c-0.2-0.7,0.2-1.5,0.9-1.7c8.4-2.6,17.1-3.9,26-3.9
					c6.9,0,13.8,0.8,20.5,2.4c0.8,0.2,1.2,0.9,1,1.7c-0.2,0.8-0.9,1.2-1.7,1c-6.5-1.5-13.2-2.3-19.9-2.3c-8.6,0-17.1,1.3-25.2,3.8
					C402.5-232.3,402.3-232.3,402.2-232.3z"/>
				<path class="st0" d="M368.7-212.7c-0.4,0-0.7-0.1-1-0.4c-0.5-0.5-0.5-1.4,0.1-2c1.4-1.3,2.8-2.5,4.2-3.8
					c0.6-0.5,1.5-0.4,1.9,0.2c0.5,0.6,0.4,1.5-0.2,1.9c-1.4,1.1-2.8,2.4-4.1,3.6C369.4-212.8,369-212.7,368.7-212.7z"/>
				<path class="st0" d="M342.4-139.1c-0.7,0-1.3-0.5-1.4-1.2c-0.5-3.7-0.7-7.4-0.7-11.1s0.3-7.4,0.7-11.1c1.4-11.3,5-22.1,10.6-32
					c0.4-0.7,1.2-0.9,1.9-0.5c0.7,0.4,0.9,1.2,0.5,1.9c-5.4,9.6-8.9,20-10.3,31c-0.4,3.5-0.7,7.1-0.7,10.7c0,3.6,0.2,7.2,0.7,10.8
					c0.1,0.8-0.4,1.4-1.2,1.5C342.5-139.2,342.5-139.1,342.4-139.1z"/>
				<path class="st0" d="M384.8-75.5c-0.3,0-0.5-0.1-0.7-0.2c-3.4-1.9-6.6-4.1-9.7-6.5c-0.6-0.5-0.7-1.3-0.3-1.9
					c0.5-0.6,1.3-0.7,1.9-0.3c3,2.3,6.1,4.4,9.4,6.3c0.6,0.4,0.9,1.2,0.5,1.9C385.7-75.8,385.3-75.5,384.8-75.5z"/>
				<path class="st0" d="M427.8-64.1c-7.8,0-15.5-1-23-3c-0.8-0.2-1.2-1-1-1.7c0.2-0.8,1-1.2,1.7-1c7.2,2,14.7,2.9,22.3,2.9
					c6.1,0,12.2-0.6,18.1-1.9c0.8-0.2,1.5,0.3,1.6,1c0.2,0.8-0.3,1.5-1,1.6C440.3-64.7,434.1-64.1,427.8-64.1z"/>
				<path class="st0" d="M469.9-75.1c-0.5,0-1-0.3-1.2-0.7c-0.4-0.7-0.1-1.5,0.5-1.9c2.1-1.2,4.1-2.4,6.1-3.8
					c0.6-0.4,1.5-0.3,1.9,0.4c0.4,0.6,0.3,1.5-0.4,1.9c-2,1.4-4.1,2.7-6.3,3.9C470.4-75.1,470.2-75.1,469.9-75.1z"/>
				<path class="st0" d="M491.6-92.4c-0.3,0-0.6-0.1-0.9-0.4c-0.6-0.5-0.6-1.4-0.1-2c9.4-10.4,16.2-23.2,19.5-36.8
					c0.2-0.8,0.9-1.2,1.7-1s1.2,0.9,1,1.7c-3.4,14.1-10.4,27.2-20.1,38C492.4-92.6,492-92.4,491.6-92.4z"/>
				<path class="st0" d="M513.8-150.1c-0.8,0-1.4-0.6-1.4-1.4c0-2.5-0.1-5.1-0.3-7.6c-0.2-2.1-0.4-4.2-0.8-6.2
					c-0.1-0.8,0.4-1.5,1.1-1.6c0.8-0.1,1.5,0.4,1.6,1.1c0.4,2.1,0.6,4.3,0.8,6.4c0.2,2.6,0.4,5.3,0.4,7.9
					C515.2-150.7,514.6-150.1,513.8-150.1z"/>
			</g>
		</g>
	</g>
	<g>
		<g>
			<g>
				<g>
					<g>
						<path class="st0" d="M437.3-118.6h-25.9c-0.8,0-1.4-0.6-1.4-1.4s0.6-1.4,1.4-1.4h25.9c4.5,0,8.1-4.8,8.1-10.8
							c0-5.9-3.7-10.8-8.1-10.8H422c-0.8,0-1.4-0.6-1.4-1.4c0-0.8,0.6-1.4,1.4-1.4h15.3c6,0,10.9,6.1,10.9,13.5
							C448.2-124.6,443.2-118.6,437.3-118.6z"/>
						<path class="st0" d="M437.3-142.9H422c-0.8,0-1.4-0.6-1.4-1.4c0-0.8,0.6-1.4,1.4-1.4h15.3c4.5,0,8.1-4.8,8.1-10.8
							c0-5.9-3.7-10.8-8.1-10.8h-25.9c-0.8,0-1.4-0.6-1.4-1.4c0-0.8,0.6-1.4,1.4-1.4h25.9c6,0,10.9,6.1,10.9,13.5
							C448.2-149,443.2-142.9,437.3-142.9z"/>
						<path class="st0" d="M423.1-167.2c-0.8,0-1.4-0.6-1.4-1.4v-6.8c0-0.8,0.6-1.4,1.4-1.4c0.8,0,1.4,0.6,1.4,1.4v6.8
							C424.5-167.9,423.9-167.2,423.1-167.2z"/>
						<path class="st0" d="M433.8-167.2c-0.8,0-1.4-0.6-1.4-1.4v-6.8c0-0.8,0.6-1.4,1.4-1.4s1.4,0.6,1.4,1.4v6.8
							C435.2-167.9,434.6-167.2,433.8-167.2z"/>
						<path class="st0" d="M423.1-111.9c-0.8,0-1.4-0.6-1.4-1.4v-6.1c0-0.8,0.6-1.4,1.4-1.4c0.8,0,1.4,0.6,1.4,1.4v6.1
							C424.5-112.5,423.9-111.9,423.1-111.9z"/>
						<path class="st0" d="M414.9-118.7c-0.8,0-1.4-0.6-1.4-1.4v-48.5c0-0.8,0.6-1.4,1.4-1.4c0.8,0,1.4,0.6,1.4,1.4v48.5
							C416.3-119.3,415.6-118.7,414.9-118.7z"/>
						<path class="st0" d="M433.8-111.9c-0.8,0-1.4-0.6-1.4-1.4v-6.1c0-0.8,0.6-1.4,1.4-1.4s1.4,0.6,1.4,1.4v6.1
							C435.2-112.5,434.6-111.9,433.8-111.9z"/>
					</g>
					<path class="st0" d="M432.9-148.9H422c-0.8,0-1.4-0.6-1.4-1.4V-162c0-0.8,0.6-1.4,1.4-1.4h10.9c4.1,0,7.5,3.3,7.5,7.2
						C440.3-152.1,437-148.9,432.9-148.9z M423.4-151.6h9.5c2.6,0,4.7-2,4.7-4.5s-2.1-4.5-4.7-4.5h-9.5V-151.6z"/>
					<path class="st0" d="M432.9-124.8H422c-0.8,0-1.4-0.6-1.4-1.4V-138c0-0.8,0.6-1.4,1.4-1.4h10.9c4.1,0,7.5,3.3,7.5,7.2
						C440.3-128.1,437-124.8,432.9-124.8z M423.4-127.6h9.5c2.6,0,4.7-2,4.7-4.5s-2.1-4.5-4.7-4.5h-9.5V-127.6z"/>
				</g>
				<path class="st0" d="M429.1-98.1c-12.4,0-24-4.8-32.7-13.5s-13.5-20.4-13.5-32.7s4.8-24,13.5-32.7c8.7-8.7,20.4-13.5,32.7-13.5
					s24,4.8,32.7,13.5c8.7,8.7,13.5,20.4,13.5,32.7s-4.8,24-13.5,32.7S441.5-98.1,429.1-98.1z M429.1-187.9
					c-11.6,0-22.5,4.5-30.8,12.8c-8.2,8.2-12.8,19.1-12.8,30.8c0,11.6,4.5,22.5,12.8,30.8c8.2,8.2,19.1,12.8,30.8,12.8
					c11.6,0,22.5-4.5,30.8-12.8c8.2-8.2,12.8-19.1,12.8-30.8c0-11.6-4.5-22.5-12.8-30.8C451.6-183.3,440.7-187.9,429.1-187.9z"/>
			</g>
			<path class="st0" d="M348.6-82c-0.3,0-0.6-0.1-0.9-0.4c-0.6-0.5-0.6-1.4-0.1-1.9l20.7-23.3c0.5-0.5,1.3-0.6,1.9-0.1l12.8,10.3
				l14.7-14.9c0.5-0.5,1.4-0.5,2,0c0.5,0.5,0.5,1.4,0,2L384-94.6c-0.5,0.5-1.3,0.5-1.9,0.1l-12.8-10.2l-19.8,22.3
				C349.3-82.2,348.9-82,348.6-82z"/>
			<path class="st0" d="M463.3-172c-0.4,0-0.7-0.1-1-0.4c-0.5-0.5-0.6-1.4,0-2l14.3-14.9c0.5-0.5,1.3-0.6,1.9-0.1l11.6,10l23.8-23.8
				c0.5-0.5,1.4-0.5,2,0c0.5,0.5,0.5,1.4,0,2l-24.7,24.7c-0.5,0.5-1.3,0.5-1.9,0.1l-11.6-10l-13.4,14C464-172.2,463.6-172,463.3-172
				z"/>
			<path class="st0" d="M515.3-191.1c-0.8,0-1.4-0.6-1.4-1.4v-8.8h-8.4c-0.8,0-1.4-0.6-1.4-1.4c0-0.8,0.6-1.4,1.4-1.4h9.8
				c0.8,0,1.4,0.6,1.4,1.4v10.2C516.7-191.8,516.1-191.1,515.3-191.1z"/>
		</g>
		<path class="st3" d="M348.7-95.8c-0.8,0-1.4-0.6-1.4-1.4v-30.7c0-0.8,0.6-1.4,1.4-1.4c0.8,0,1.4,0.6,1.4,1.4v30.7
			C350.1-96.5,349.4-95.8,348.7-95.8z"/>
		<path class="st3" d="M359.1-105.8c-0.8,0-1.4-0.6-1.4-1.4v-30.7c0-0.8,0.6-1.4,1.4-1.4s1.4,0.6,1.4,1.4v30.7
			C360.4-106.5,359.8-105.8,359.1-105.8z"/>
		<path class="st3" d="M369-115.5c-0.8,0-1.4-0.6-1.4-1.4v-30.7c0-0.8,0.6-1.4,1.4-1.4c0.8,0,1.4,0.6,1.4,1.4v30.7
			C370.4-116.1,369.8-115.5,369-115.5z"/>
		<path class="st3" d="M462.9-185.4c-0.8,0-1.4-0.6-1.4-1.4v-19.2c0-0.8,0.6-1.4,1.4-1.4c0.8,0,1.4,0.6,1.4,1.4v19.3
			C464.3-186,463.6-185.4,462.9-185.4z"/>
		<path class="st3" d="M452.2-191.5c-0.8,0-1.4-0.6-1.4-1.4v-8.9c0-0.8,0.6-1.4,1.4-1.4c0.8,0,1.4,0.6,1.4,1.4v8.9
			C453.6-192.1,453-191.5,452.2-191.5z"/>
		<path class="st3" d="M472.9-194c-0.8,0-1.4-0.6-1.4-1.4v-21.4c0-0.8,0.6-1.4,1.4-1.4c0.8,0,1.4,0.6,1.4,1.4v21.4
			C474.3-194.6,473.6-194,472.9-194z"/>
		<path class="st3" d="M482.9-194c-0.8,0-1.4-0.6-1.4-1.4v-27.5c0-0.8,0.6-1.4,1.4-1.4s1.4,0.6,1.4,1.4v27.5
			C484.3-194.6,483.6-194,482.9-194z"/>
		<path class="st3" d="M492.9-191.5c-0.8,0-1.4-0.6-1.4-1.4v-17.5c0-0.8,0.6-1.4,1.4-1.4s1.4,0.6,1.4,1.4v17.5
			C494.3-192.1,493.6-191.5,492.9-191.5z"/>
		<path class="st3" d="M379.4-111.2c-0.8,0-1.4-0.6-1.4-1.4v-15.3c0-0.8,0.6-1.4,1.4-1.4c0.8,0,1.4,0.6,1.4,1.4v15.3
			C380.8-111.8,380.2-111.2,379.4-111.2z"/>
	</g>
</g>
<g>
	<g>
		<g>
			<g class="st2">
				<path class="st0" d="M166.8-409.1h-2.9c-0.8,0-1.4-0.6-1.4-1.4s0.6-1.4,1.4-1.4h2.9c0.8,0,1.4,0.6,1.4,1.4
					S167.6-409.1,166.8-409.1z"/>
				<path class="st0" d="M178.2-409.1h-3.3c-0.8,0-1.4-0.6-1.4-1.4s0.6-1.4,1.4-1.4h3.3c0.8,0,1.4,0.6,1.4,1.4
					S179-409.1,178.2-409.1z"/>
			</g>
			<g>
				<path class="st1" d="M171-401.9c-0.8,0-1.4-0.6-1.4-1.4v-2.9c0-0.8,0.6-1.4,1.4-1.4c0.8,0,1.4,0.6,1.4,1.4v2.9
					C172.4-402.5,171.7-401.9,171-401.9z"/>
				<path class="st1" d="M171-412.9c-0.8,0-1.4-0.6-1.4-1.4v-3.3c0-0.8,0.6-1.4,1.4-1.4c0.8,0,1.4,0.6,1.4,1.4v3.3
					C172.4-413.6,171.7-412.9,171-412.9z"/>
			</g>
		</g>
		<g class="st2">
			<g>
				<path class="st0" d="M340.7-471.8h-2.9c-0.8,0-1.4-0.6-1.4-1.4c0-0.8,0.6-1.4,1.4-1.4h2.9c0.8,0,1.4,0.6,1.4,1.4
					C342.1-472.4,341.5-471.8,340.7-471.8z"/>
				<path class="st0" d="M352.1-471.8h-3.3c-0.8,0-1.4-0.6-1.4-1.4c0-0.8,0.6-1.4,1.4-1.4h3.3c0.8,0,1.4,0.6,1.4,1.4
					C353.5-472.4,352.9-471.8,352.1-471.8z"/>
			</g>
			<g>
				<path class="st0" d="M344.9-464.6c-0.8,0-1.4-0.6-1.4-1.4v-2.9c0-0.8,0.6-1.4,1.4-1.4c0.8,0,1.4,0.6,1.4,1.4v2.9
					C346.3-465.2,345.6-464.6,344.9-464.6z"/>
				<path class="st0" d="M344.9-475.6c-0.8,0-1.4-0.6-1.4-1.4v-3.3c0-0.8,0.6-1.4,1.4-1.4c0.8,0,1.4,0.6,1.4,1.4v3.3
					C346.3-476.2,345.6-475.6,344.9-475.6z"/>
			</g>
		</g>
		<g class="st2">
			<g>
				<path class="st0" d="M221.6-560h-2.9c-0.8,0-1.4-0.6-1.4-1.4c0-0.8,0.6-1.4,1.4-1.4h2.9c0.8,0,1.4,0.6,1.4,1.4
					C223-560.6,222.4-560,221.6-560z"/>
				<path class="st0" d="M233-560h-3.3c-0.8,0-1.4-0.6-1.4-1.4c0-0.8,0.6-1.4,1.4-1.4h3.3c0.8,0,1.4,0.6,1.4,1.4
					C234.4-560.6,233.8-560,233-560z"/>
			</g>
			<g>
				<path class="st0" d="M225.7-552.7c-0.8,0-1.4-0.6-1.4-1.4v-2.9c0-0.8,0.6-1.4,1.4-1.4c0.8,0,1.4,0.6,1.4,1.4v2.9
					C227.1-553.3,226.5-552.7,225.7-552.7z"/>
				<path class="st0" d="M225.7-563.8c-0.8,0-1.4-0.6-1.4-1.4v-3.3c0-0.8,0.6-1.4,1.4-1.4c0.8,0,1.4,0.6,1.4,1.4v3.3
					C227.1-564.4,226.5-563.8,225.7-563.8z"/>
			</g>
		</g>
		<g class="st2">
			<g>
				<path class="st0" d="M336.8-420.8h-2.9c-0.8,0-1.4-0.6-1.4-1.4c0-0.8,0.6-1.4,1.4-1.4h2.9c0.8,0,1.4,0.6,1.4,1.4
					S337.6-420.8,336.8-420.8z"/>
				<path class="st0" d="M348.3-420.8h-3.3c-0.8,0-1.4-0.6-1.4-1.4c0-0.8,0.6-1.4,1.4-1.4h3.3c0.8,0,1.4,0.6,1.4,1.4
					S349.1-420.8,348.3-420.8z"/>
			</g>
			<g>
				<path class="st0" d="M341-413.5c-0.8,0-1.4-0.6-1.4-1.4v-2.9c0-0.8,0.6-1.4,1.4-1.4s1.4,0.6,1.4,1.4v2.9
					C342.4-414.1,341.7-413.5,341-413.5z"/>
				<path class="st0" d="M341-424.6c-0.8,0-1.4-0.6-1.4-1.4v-3.3c0-0.8,0.6-1.4,1.4-1.4s1.4,0.6,1.4,1.4v3.3
					C342.4-425.2,341.7-424.6,341-424.6z"/>
			</g>
		</g>
		<path class="st1" d="M166.4-445.1c-2.5,0-4.5-2-4.5-4.5c0-2.5,2-4.5,4.5-4.5c2.5,0,4.5,2,4.5,4.5
			C170.9-447.1,168.9-445.1,166.4-445.1z M166.4-451.3c-0.9,0-1.7,0.8-1.7,1.7c0,0.9,0.8,1.7,1.7,1.7c0.9,0,1.7-0.8,1.7-1.7
			C168.2-450.5,167.4-451.3,166.4-451.3z"/>
		<path class="st1" d="M263-546c-2.5,0-4.5-2-4.5-4.5c0-2.5,2-4.5,4.5-4.5s4.5,2,4.5,4.5C267.4-548,265.4-546,263-546z M263-552.2
			c-0.9,0-1.7,0.8-1.7,1.7c0,0.9,0.8,1.7,1.7,1.7c0.9,0,1.7-0.8,1.7-1.7C264.6-551.4,263.9-552.2,263-552.2z"/>
		<path class="st1" d="M322.1-407.9c-2.5,0-4.5-2-4.5-4.5c0-2.5,2-4.5,4.5-4.5s4.5,2,4.5,4.5C326.6-409.9,324.6-407.9,322.1-407.9z
			 M322.1-414.1c-0.9,0-1.7,0.8-1.7,1.7c0,0.9,0.8,1.7,1.7,1.7c0.9,0,1.7-0.8,1.7-1.7C323.9-413.3,323.1-414.1,322.1-414.1z"/>
		<path class="st1" d="M250.3-379.8c-21.4,0-41.9-8-57.6-22.5c-0.6-0.5-0.6-1.4-0.1-2c0.5-0.6,1.4-0.6,2-0.1
			c15.2,14,35,21.8,55.8,21.8c9.9,0,19.5-1.7,28.6-5.1c8.9-3.3,17-8,24.3-14.1c0.6-0.5,1.5-0.4,1.9,0.2c0.5,0.6,0.4,1.5-0.2,1.9
			c-7.5,6.3-15.9,11.2-25.1,14.6C270.4-381.6,260.5-379.8,250.3-379.8z"/>
		<path class="st1" d="M327.7-495.5c-0.5,0-1.1-0.3-1.3-0.9c-3.3-8-7.8-15.4-13.5-22c-5.6-6.6-12.2-12.2-19.5-16.7
			c-0.6-0.4-0.9-1.3-0.5-1.9c0.4-0.6,1.3-0.9,1.9-0.5c7.6,4.7,14.4,10.5,20.2,17.3c5.8,6.8,10.5,14.5,13.9,22.8
			c0.3,0.7,0,1.5-0.8,1.8C328.1-495.5,327.9-495.5,327.7-495.5z"/>
		<path class="st1" d="M166.5-463.6c-0.8,0-1.4-0.6-1.4-1.4c0-31.2,17.1-59.9,44.6-74.8c0.7-0.4,1.5-0.1,1.9,0.5
			c0.4,0.7,0.1,1.5-0.5,1.9c-26.6,14.4-43.1,42.2-43.1,72.4C167.9-464.2,167.3-463.6,166.5-463.6z"/>
	</g>
	<g>
		<path class="st0" d="M250-391.5c-10,0-19.6-1.9-28.7-5.8c-8.8-3.7-16.7-9-23.4-15.8c-6.8-6.8-12.1-14.7-15.8-23.4
			c-3.8-9.1-5.8-18.7-5.8-28.7c0-9.9,1.9-19.6,5.8-28.7c3.7-8.8,9-16.7,15.8-23.4c6.8-6.8,14.7-12.1,23.4-15.8
			c9.1-3.8,18.7-5.8,28.7-5.8c9.9,0,19.6,1.9,28.7,5.8c8.8,3.7,16.7,9,23.4,15.8c6.8,6.8,12.1,14.7,15.8,23.4
			c3.8,9.1,5.8,18.7,5.8,28.7c0,9.9-1.9,19.6-5.8,28.7c-3.7,8.8-9,16.7-15.8,23.4c-6.8,6.8-14.7,12.1-23.4,15.8
			C269.6-393.5,259.9-391.5,250-391.5z M250-536.1c-9.6,0-18.9,1.9-27.6,5.6c-8.5,3.6-16,8.7-22.5,15.2s-11.6,14.1-15.2,22.5
			c-3.7,8.7-5.6,18-5.6,27.6c0,9.6,1.9,18.9,5.6,27.6c3.6,8.5,8.7,16,15.2,22.5c6.5,6.5,14.1,11.6,22.5,15.2
			c8.7,3.7,18,5.6,27.6,5.6c9.6,0,18.9-1.9,27.6-5.6c8.5-3.6,16-8.7,22.5-15.2c6.5-6.5,11.6-14.1,15.2-22.5c3.7-8.7,5.6-18,5.6-27.6
			c0-9.6-1.9-18.9-5.6-27.6c-3.6-8.5-8.7-16-15.2-22.5c-6.5-6.5-14.1-11.6-22.5-15.2C268.8-534.2,259.6-536.1,250-536.1z"/>
		<g>
			<g>
				<path class="st0" d="M254.1-436.9h-19.6c-0.8,0-1.4-0.6-1.4-1.4c0-0.8,0.6-1.4,1.4-1.4h19.6c2.8,0,5.4-0.3,7.8-0.8
					c2.3-0.5,4.2-1.4,5.9-2.6c1.5-1.1,2.7-2.5,3.7-4.1c0,0,0,0,0,0c1.5-2.4,2.3-5.2,2.3-8.4c0-3-0.7-5.6-2-7.6
					c-1.3-2-3.3-3.5-5.9-4.5c-0.5-0.2-0.9-0.7-0.9-1.2s0.3-1.1,0.8-1.3c1.7-0.9,3-1.9,3.9-2.9c1.5-1.9,2.3-4.4,2.3-7.5
					c0-3-0.8-5.7-2.4-7.9c-2.6-3.5-7.2-5.4-13.7-5.5h-26.1v49.7c0,0.8-0.6,1.4-1.4,1.4c-0.8,0-1.4-0.6-1.4-1.4v-51.1
					c0-0.8,0.6-1.4,1.4-1.4h27.5c0,0,0,0,0,0c7.4,0.1,12.7,2.3,15.8,6.6c1.9,2.7,2.9,5.8,2.9,9.5c0,3.8-1,6.9-2.9,9.3
					c-0.6,0.8-1.5,1.5-2.4,2.2c2,1.1,3.6,2.6,4.8,4.4c1.6,2.5,2.4,5.6,2.4,9.1c0,3.6-0.9,6.9-2.7,9.8c-1.1,1.9-2.7,3.5-4.4,4.9
					c-2,1.5-4.3,2.5-7,3.1C259.9-437.1,257-436.9,254.1-436.9z"/>
				<path class="st0" d="M253.4-471.4h-6.5c-0.8,0-1.4-0.6-1.4-1.4s0.6-1.4,1.4-1.4h6.5c2.2,0,4-0.4,5.3-1.2
					c1.1-0.7,1.6-1.9,1.6-3.8c0-2.7-1.2-3.5-2.2-3.9c-1.6-0.5-3.7-0.8-6.2-0.8h-11v11.2c0,0.8-0.6,1.4-1.4,1.4
					c-0.8,0-1.4-0.6-1.4-1.4v-12.5c0-0.8,0.6-1.4,1.4-1.4h12.4c2.9,0,5.3,0.3,7.2,1c0,0,0.1,0,0.1,0c1.8,0.8,3.9,2.5,3.9,6.5
					c0,2.9-1,5-3,6.2C258.3-471.9,256.1-471.4,253.4-471.4z"/>
				<path class="st0" d="M253.4-446.8h-10c-0.8,0-1.4-0.6-1.4-1.4s0.6-1.4,1.4-1.4h10c2.3,0,4-0.3,5.2-0.9c0.7-0.4,3-1.5,3-5.9
					c0-2.4-0.9-4-2.8-4.8c-1.2-0.5-2.9-0.8-5.1-0.8h-12.6v9.1c0,0.8-0.6,1.4-1.4,1.4s-1.4-0.6-1.4-1.4v-10.5c0-0.8,0.6-1.4,1.4-1.4
					h14c2.7,0,4.7,0.4,6.3,1.1c2.9,1.3,4.4,3.9,4.4,7.3c0,4.1-1.5,6.8-4.5,8.4C258.2-447.1,256-446.8,253.4-446.8z"/>
			</g>
			<g>
				<path class="st0" d="M240.2-505.8c-2.9,0-5.2-2.4-5.2-5.2c0-2.9,2.4-5.3,5.2-5.3c2.9,0,5.2,2.4,5.2,5.3
					C245.5-508.1,243.1-505.8,240.2-505.8z M240.2-513.5c-1.4,0-2.5,1.1-2.5,2.5s1.1,2.5,2.5,2.5s2.5-1.1,2.5-2.5
					S241.6-513.5,240.2-513.5z"/>
				<path class="st0" d="M240.2-493.8c-0.8,0-1.4-0.6-1.4-1.4V-507c0-0.8,0.6-1.4,1.4-1.4s1.4,0.6,1.4,1.4v11.8
					C241.6-494.4,241-493.8,240.2-493.8z"/>
			</g>
			<g>
				<path class="st0" d="M255-515c-2.9,0-5.2-2.4-5.2-5.2c0-2.9,2.4-5.3,5.2-5.3c2.9,0,5.2,2.4,5.2,5.3
					C260.3-517.4,257.9-515,255-515z M255-522.7c-1.4,0-2.5,1.1-2.5,2.5s1.1,2.5,2.5,2.5c1.4,0,2.5-1.1,2.5-2.5
					S256.4-522.7,255-522.7z"/>
				<path class="st0" d="M255-493.8c-0.8,0-1.4-0.6-1.4-1.4v-21c0-0.8,0.6-1.4,1.4-1.4c0.8,0,1.4,0.6,1.4,1.4v21
					C256.4-494.4,255.8-493.8,255-493.8z"/>
			</g>
			<g>
				<path class="st0" d="M255-417.9c-2.9,0-5.2-2.4-5.2-5.2c0-2.9,2.4-5.2,5.2-5.2c2.9,0,5.2,2.4,5.2,5.2
					C260.3-420.3,257.9-417.9,255-417.9z M255-425.7c-1.4,0-2.5,1.1-2.5,2.5c0,1.4,1.1,2.5,2.5,2.5c1.4,0,2.5-1.1,2.5-2.5
					C257.5-424.6,256.4-425.7,255-425.7z"/>
				<path class="st0" d="M255-425.9c-0.8,0-1.4-0.6-1.4-1.4v-10.5c0-0.8,0.6-1.4,1.4-1.4c0.8,0,1.4,0.6,1.4,1.4v10.5
					C256.4-426.5,255.8-425.9,255-425.9z"/>
			</g>
			<g>
				<path class="st0" d="M240.2-409.3c-2.9,0-5.2-2.4-5.2-5.2s2.4-5.2,5.2-5.2c2.9,0,5.2,2.4,5.2,5.2S243.1-409.3,240.2-409.3z
					 M240.2-417c-1.4,0-2.5,1.1-2.5,2.5c0,1.4,1.1,2.5,2.5,2.5s2.5-1.1,2.5-2.5C242.7-415.9,241.6-417,240.2-417z"/>
				<path class="st0" d="M240.2-417.2c-0.8,0-1.4-0.6-1.4-1.4v-19.1c0-0.8,0.6-1.4,1.4-1.4s1.4,0.6,1.4,1.4v19.1
					C241.6-417.8,241-417.2,240.2-417.2z"/>
			</g>
		</g>
		<g>
			<path class="st3" d="M215.2-450c-0.5,0-1.1-0.3-1.3-0.9c-0.4-1-0.7-1.9-1-2.9c-0.2-0.7,0.2-1.5,0.9-1.7c0.7-0.2,1.5,0.2,1.7,0.9
				c0.3,0.9,0.6,1.8,1,2.7c0.3,0.7-0.1,1.5-0.8,1.8C215.6-450,215.4-450,215.2-450z"/>
			<path class="st3" d="M226.5-434.7c-0.3,0-0.6-0.1-0.9-0.3c-3.4-2.8-6.4-6.1-8.7-9.9c-0.4-0.6-0.2-1.5,0.5-1.9
				c0.6-0.4,1.5-0.2,1.9,0.5c2.2,3.5,4.9,6.6,8.1,9.2c0.6,0.5,0.7,1.4,0.2,1.9C227.3-434.9,226.9-434.7,226.5-434.7z"/>
			<path class="st3" d="M262.9-428.7c-0.6,0-1.1-0.4-1.3-0.9c-0.3-0.7,0.1-1.5,0.8-1.8c8.5-3.1,15.5-9.3,19.7-17.4
				c0.4-0.7,1.2-0.9,1.9-0.6c0.7,0.4,0.9,1.2,0.6,1.9c-4.5,8.7-12,15.4-21.2,18.7C263.2-428.7,263-428.7,262.9-428.7z"/>
			<path class="st3" d="M286.6-456.1c-0.1,0-0.2,0-0.3,0c-0.8-0.1-1.2-0.9-1.1-1.6c0.5-2.4,0.8-4.9,0.8-7.5c0-3.7-0.5-7.2-1.6-10.7
				c-0.2-0.7,0.2-1.5,0.9-1.7c0.7-0.2,1.5,0.2,1.7,0.9c1.1,3.7,1.7,7.6,1.7,11.5c0,2.7-0.3,5.4-0.8,8
				C287.8-456.5,287.2-456.1,286.6-456.1z"/>
			<path class="st3" d="M212.8-459.5c-0.1,0-0.3,0-0.5-0.1l-12.2-4.3c-0.5-0.2-0.9-0.7-0.9-1.3c0-13.3,5.1-25.8,14.3-35.4
				c0.5-0.5,1.4-0.6,2,0c0.5,0.5,0.6,1.4,0,2c-8.5,8.8-13.3,20.3-13.5,32.5l9.2,3.2c0-0.8-0.1-1.5-0.1-2.3c0-9.5,3.4-18.6,9.7-25.6
				c0.5-0.6,1.4-0.6,1.9-0.1c0.6,0.5,0.6,1.4,0.1,1.9c-5.8,6.6-9,15-9,23.8c0,1.4,0.1,2.8,0.2,4.1c0,0.5-0.1,0.9-0.5,1.3
				C213.4-459.6,213.1-459.5,212.8-459.5z"/>
			<path class="st3" d="M221.9-423.3c-0.3,0-0.5-0.1-0.8-0.3c-8.8-6.1-15.3-14.6-18.9-24.6c-0.3-0.7,0.1-1.5,0.8-1.8
				c0.7-0.3,1.5,0.1,1.8,0.8c3.3,9.3,9.7,17.6,17.8,23.3c0.6,0.4,0.8,1.3,0.4,1.9C222.8-423.5,222.4-423.3,221.9-423.3z"/>
			<path class="st3" d="M274-407.7c-0.4,0-0.8-0.1-1-0.4l-8.5-9.2c-0.3-0.4-0.4-0.8-0.3-1.3c0.1-0.5,0.5-0.8,0.9-1
				c3.3-1.1,6.5-2.5,9.4-4.3c0.6-0.4,1.5-0.2,1.9,0.5c0.4,0.6,0.2,1.5-0.5,1.9c-2.5,1.5-5.2,2.8-8,3.9l6.4,7
				c7.7-3.5,14.8-8.6,20.4-15c5.9-6.7,10.3-14.7,12.7-23.2c0.2-0.8,1-1.1,1.7-1c0.8,0.2,1.1,1,1,1.7c-2.5,8.9-7.1,17.3-13.3,24.3
				c-6.1,6.9-13.8,12.5-22.3,16.1C274.3-407.7,274.1-407.7,274-407.7z"/>
			<path class="st3" d="M286.2-430.5c-0.3,0-0.7-0.1-0.9-0.4c-0.6-0.5-0.6-1.4-0.1-2c3.8-4.1,6.8-8.9,9-14c2.4-5.8,3.7-12,3.8-18.4
				c0.1-7.3-1.5-14.4-4.8-21c-0.4-0.7-0.1-1.5,0.6-1.9c0.7-0.3,1.5-0.1,1.9,0.6c3.5,7,5.2,14.5,5.1,22.3c-0.1,6.7-1.4,13.3-4,19.4
				c-2.3,5.5-5.4,10.5-9.5,14.8C287-430.6,286.6-430.5,286.2-430.5z"/>
			<path class="st3" d="M282.4-482.6C282.3-482.6,282.3-482.6,282.4-482.6c-0.5,0-1-0.3-1.2-0.7c-4.4-7.6-11.5-13.4-19.9-16.1
				c-0.7-0.3-1.1-1-0.9-1.8c0.3-0.7,1-1.1,1.8-0.9c8.4,2.8,15.5,8.2,20.3,15.6l5.6-7.8c-6-7.7-14.4-13.5-23.7-16.5
				c-0.7-0.3-1.1-1-0.9-1.8c0.3-0.7,1-1.1,1.8-0.9c10.1,3.3,19.2,9.7,25.6,18.3c0.4,0.5,0.4,1.1,0,1.6l-7.3,10.4
				C283.2-482.8,282.8-482.6,282.4-482.6z"/>
			<path class="st3" d="M311-463.8c-0.8,0-1.4-0.6-1.4-1.4c0-14.8-5.5-29.1-15.5-40.1c-0.5-0.6-0.5-1.4,0.1-2c0.6-0.5,1.4-0.5,2,0.1
				c10.4,11.5,16.2,26.4,16.2,41.9C312.4-464.4,311.7-463.8,311-463.8z"/>
			<path class="st3" d="M280.7-516.5c-0.3,0-0.5-0.1-0.7-0.2c-4-2.4-8.3-4.2-12.8-5.6c-0.7-0.2-1.1-1-0.9-1.7c0.2-0.7,1-1.1,1.7-0.9
				c4.7,1.4,9.2,3.4,13.4,5.8c0.6,0.4,0.9,1.2,0.5,1.9C281.6-516.8,281.2-516.5,280.7-516.5z"/>
			<path class="st3" d="M200.2-499.1c-0.3,0-0.6-0.1-0.8-0.3c-0.6-0.4-0.8-1.3-0.3-1.9c10.1-14.2,25.7-23.6,42.9-25.8
				c0.8-0.1,1.4,0.4,1.5,1.2c0.1,0.8-0.4,1.4-1.2,1.5c-16.4,2.1-31.4,11-41,24.6C201.1-499.3,200.7-499.1,200.2-499.1z"/>
			<path class="st3" d="M196.4-493c-0.2,0-0.5-0.1-0.6-0.2c-0.7-0.4-0.9-1.2-0.5-1.9c0.3-0.5,0.6-1.1,0.9-1.6
				c0.4-0.6,1.2-0.9,1.9-0.5c0.6,0.4,0.9,1.2,0.5,1.9c-0.3,0.5-0.6,1.1-0.9,1.6C197.4-493.2,196.9-493,196.4-493z"/>
			<path class="st3" d="M194.8-437.9c-0.5,0-1-0.3-1.3-0.8c-3.9-8.4-5.9-17.3-5.9-26.6c0-7.5,1.3-14.8,3.9-21.8
				c0.3-0.7,1.1-1.1,1.8-0.8s1.1,1.1,0.8,1.8c-2.5,6.7-3.7,13.7-3.7,20.8c0,8.9,1.9,17.4,5.7,25.4c0.3,0.7,0,1.5-0.6,1.8
				C195.2-437.9,195-437.9,194.8-437.9z"/>
			<path class="st3" d="M250-402.8c-18.2,0-35.5-8-47.4-21.8c-0.5-0.6-0.4-1.5,0.1-1.9c0.6-0.5,1.5-0.4,1.9,0.1
				c11.4,13.3,27.8,20.9,45.3,20.9c5.1,0,10.2-0.6,15.1-1.9c0.8-0.2,1.5,0.3,1.7,1c0.2,0.8-0.3,1.5-1,1.7
				C260.7-403.5,255.3-402.8,250-402.8z"/>
			<path class="st3" d="M201.3-451.2c-2.3,0-4.1-1.8-4.1-4.1c0-2.3,1.8-4.1,4.1-4.1c2.3,0,4.1,1.8,4.1,4.1
				C205.4-453,203.6-451.2,201.3-451.2z M201.3-456.6c-0.7,0-1.3,0.6-1.3,1.3c0,0.7,0.6,1.3,1.3,1.3s1.3-0.6,1.3-1.3
				C202.6-456,202.1-456.6,201.3-456.6z"/>
			<path class="st3" d="M198.3-428.4c-2.3,0-4.1-1.8-4.1-4.1s1.8-4.1,4.1-4.1c2.3,0,4.1,1.8,4.1,4.1S200.6-428.4,198.3-428.4z
				 M198.3-433.8c-0.7,0-1.3,0.6-1.3,1.3s0.6,1.3,1.3,1.3s1.3-0.6,1.3-1.3C199.6-433.2,199.1-433.8,198.3-433.8z"/>
			<path class="st3" d="M281-423.1c-2.3,0-4.1-1.8-4.1-4.1c0-2.3,1.8-4.1,4.1-4.1c2.3,0,4.1,1.8,4.1,4.1
				C285-424.9,283.2-423.1,281-423.1z M281-428.5c-0.7,0-1.3,0.6-1.3,1.3c0,0.7,0.6,1.3,1.3,1.3c0.7,0,1.3-0.6,1.3-1.3
				C282.2-427.9,281.7-428.5,281-428.5z"/>
			<path class="st3" d="M219.9-500c-2.3,0-4.1-1.8-4.1-4.1c0-2.3,1.8-4.1,4.1-4.1c2.3,0,4.1,1.8,4.1,4.1
				C224-501.8,222.1-500,219.9-500z M219.9-505.3c-0.7,0-1.3,0.6-1.3,1.3c0,0.7,0.6,1.3,1.3,1.3s1.3-0.6,1.3-1.3
				C221.2-504.8,220.6-505.3,219.9-505.3z"/>
			<path class="st3" d="M288.8-508.2c-2.3,0-4.1-1.8-4.1-4.1c0-2.3,1.8-4.1,4.1-4.1s4.1,1.8,4.1,4.1
				C292.9-510,291-508.2,288.8-508.2z M288.8-513.6c-0.7,0-1.3,0.6-1.3,1.3c0,0.7,0.6,1.3,1.3,1.3c0.7,0,1.3-0.6,1.3-1.3
				C290.1-513,289.5-513.6,288.8-513.6z"/>
			<path class="st3" d="M309.9-451.7c-2.3,0-4.1-1.8-4.1-4.1c0-2.3,1.8-4.1,4.1-4.1s4.1,1.8,4.1,4.1
				C314-453.5,312.1-451.7,309.9-451.7z M309.9-457c-0.7,0-1.3,0.6-1.3,1.3c0,0.7,0.6,1.3,1.3,1.3s1.3-0.6,1.3-1.3
				C311.2-456.5,310.6-457,309.9-457z"/>
		</g>
	</g>
</g>
<g>
	<g>
		<g>
			<g class="st2">
				<g>
					<path class="st0" d="M36.5,89h-3c-0.8,0-1.4-0.6-1.4-1.4c0-0.8,0.6-1.4,1.4-1.4h2.9c0.8,0,1.4,0.6,1.4,1.4
						C37.9,88.3,37.3,89,36.5,89z"/>
					<path class="st0" d="M47.9,89h-3.3c-0.8,0-1.4-0.6-1.4-1.4c0-0.8,0.6-1.4,1.4-1.4h3.3c0.8,0,1.4,0.6,1.4,1.4
						C49.3,88.3,48.7,89,47.9,89z"/>
				</g>
				<g>
					<path class="st0" d="M40.7,96.2c-0.8,0-1.4-0.6-1.4-1.4v-2.9c0-0.8,0.6-1.4,1.4-1.4c0.8,0,1.4,0.6,1.4,1.4v2.9
						C42,95.6,41.4,96.2,40.7,96.2z"/>
					<path class="st0" d="M40.7,85.2c-0.8,0-1.4-0.6-1.4-1.4v-3.3c0-0.8,0.6-1.4,1.4-1.4c0.8,0,1.4,0.6,1.4,1.4v3.3
						C42,84.5,41.4,85.2,40.7,85.2z"/>
				</g>
			</g>
			<g class="st2">
				<g>
					<path class="st0" d="M128.5,172.9h-2.9c-0.8,0-1.4-0.6-1.4-1.4c0-0.8,0.6-1.4,1.4-1.4h2.9c0.8,0,1.4,0.6,1.4,1.4
						C129.9,172.3,129.3,172.9,128.5,172.9z"/>
					<path class="st0" d="M139.9,172.9h-3.3c-0.8,0-1.4-0.6-1.4-1.4c0-0.8,0.6-1.4,1.4-1.4h3.3c0.8,0,1.4,0.6,1.4,1.4
						C141.3,172.3,140.7,172.9,139.9,172.9z"/>
				</g>
				<g>
					<path class="st0" d="M132.7,180.1c-0.8,0-1.4-0.6-1.4-1.4v-2.9c0-0.8,0.6-1.4,1.4-1.4s1.4,0.6,1.4,1.4v2.9
						C134.1,179.5,133.4,180.1,132.7,180.1z"/>
					<path class="st0" d="M132.7,169.1c-0.8,0-1.4-0.6-1.4-1.4v-3.3c0-0.8,0.6-1.4,1.4-1.4s1.4,0.6,1.4,1.4v3.3
						C134.1,168.5,133.4,169.1,132.7,169.1z"/>
				</g>
			</g>
			<g class="st2">
				<g>
					<path class="st0" d="M141.2,17.8h-2.9c-0.8,0-1.4-0.6-1.4-1.4c0-0.8,0.6-1.4,1.4-1.4h2.9c0.8,0,1.4,0.6,1.4,1.4
						C142.6,17.2,142,17.8,141.2,17.8z"/>
					<path class="st0" d="M152.7,17.8h-3.3c-0.8,0-1.4-0.6-1.4-1.4c0-0.8,0.6-1.4,1.4-1.4h3.3c0.8,0,1.4,0.6,1.4,1.4
						C154.1,17.2,153.5,17.8,152.7,17.8z"/>
				</g>
				<g>
					<path class="st0" d="M145.4,25.1c-0.8,0-1.4-0.6-1.4-1.4v-2.9c0-0.8,0.6-1.4,1.4-1.4c0.8,0,1.4,0.6,1.4,1.4v2.9
						C146.8,24.4,146.1,25.1,145.4,25.1z"/>
					<path class="st0" d="M145.4,14c-0.8,0-1.4-0.6-1.4-1.4V9.2c0-0.8,0.6-1.4,1.4-1.4c0.8,0,1.4,0.6,1.4,1.4v3.3
						C146.8,13.4,146.1,14,145.4,14z"/>
				</g>
			</g>
			<path class="st1" d="M10.1,132.3c-2.5,0-4.5-2-4.5-4.5c0-2.5,2-4.5,4.5-4.5s4.5,2,4.5,4.5C14.6,130.3,12.6,132.3,10.1,132.3z
				 M10.1,126.1c-0.9,0-1.7,0.8-1.7,1.7c0,1,0.8,1.7,1.7,1.7c0.9,0,1.7-0.8,1.7-1.7C11.8,126.8,11.1,126.1,10.1,126.1z"/>
			<g class="st2">
				<path class="st0" d="M81,23.4c-0.6,0-1.1-0.4-1.3-1c-0.2-0.7,0.2-1.5,0.9-1.7c8.4-2.6,17.1-3.9,26-3.9c6.9,0,13.8,0.8,20.5,2.4
					c0.8,0.2,1.2,0.9,1,1.7c-0.2,0.8-0.9,1.2-1.7,1c-6.5-1.5-13.2-2.3-19.9-2.3c-8.6,0-17.1,1.3-25.2,3.8
					C81.3,23.3,81.1,23.4,81,23.4z"/>
				<path class="st0" d="M47.5,43c-0.4,0-0.7-0.1-1-0.4c-0.5-0.5-0.5-1.4,0.1-2c1.4-1.3,2.8-2.5,4.2-3.8c0.6-0.5,1.5-0.4,1.9,0.2
					c0.5,0.6,0.4,1.5-0.2,1.9c-1.4,1.1-2.8,2.4-4.1,3.6C48.2,42.8,47.9,43,47.5,43z"/>
				<path class="st0" d="M21.2,116.5c-0.7,0-1.3-0.5-1.4-1.2c-0.5-3.7-0.7-7.4-0.7-11.1c0-3.7,0.3-7.4,0.7-11.1
					c1.4-11.3,5-22.1,10.6-32c0.4-0.7,1.2-0.9,1.9-0.5c0.7,0.4,0.9,1.2,0.5,1.9c-5.4,9.6-8.9,20-10.3,31c-0.4,3.5-0.7,7.1-0.7,10.7
					s0.2,7.2,0.7,10.8c0.1,0.8-0.4,1.4-1.2,1.5C21.3,116.5,21.3,116.5,21.2,116.5z"/>
				<path class="st0" d="M63.6,180.1c-0.3,0-0.5-0.1-0.7-0.2c-3.4-1.9-6.6-4.1-9.7-6.5c-0.6-0.5-0.7-1.3-0.3-1.9
					c0.5-0.6,1.3-0.7,1.9-0.3c3,2.3,6.1,4.4,9.4,6.3c0.6,0.4,0.9,1.2,0.5,1.9C64.6,179.9,64.1,180.1,63.6,180.1z"/>
				<path class="st0" d="M106.6,191.6c-7.8,0-15.5-1-23-3c-0.8-0.2-1.2-1-1-1.7c0.2-0.8,1-1.2,1.7-1c7.2,2,14.7,2.9,22.3,2.9
					c6.1,0,12.2-0.6,18.1-1.9c0.8-0.2,1.5,0.3,1.6,1c0.2,0.8-0.3,1.5-1,1.6C119.2,190.9,112.9,191.6,106.6,191.6z"/>
				<path class="st0" d="M148.8,180.6c-0.5,0-1-0.3-1.2-0.7c-0.4-0.7-0.1-1.5,0.5-1.9c2.1-1.2,4.1-2.4,6.1-3.8
					c0.6-0.4,1.5-0.3,1.9,0.4c0.4,0.6,0.3,1.5-0.4,1.9c-2,1.4-4.1,2.7-6.3,3.9C149.2,180.5,149,180.6,148.8,180.6z"/>
				<path class="st0" d="M170.4,163.2c-0.3,0-0.6-0.1-0.9-0.4c-0.6-0.5-0.6-1.4-0.1-2c9.4-10.4,16.2-23.2,19.5-36.8
					c0.2-0.8,0.9-1.2,1.7-1c0.8,0.2,1.2,0.9,1,1.7c-3.4,14.1-10.4,27.2-20.1,38C171.2,163.1,170.8,163.2,170.4,163.2z"/>
				<path class="st0" d="M192.6,105.6c-0.8,0-1.4-0.6-1.4-1.4c0-2.5-0.1-5.1-0.3-7.6c-0.2-2.1-0.4-4.2-0.8-6.2
					c-0.1-0.8,0.4-1.5,1.1-1.6s1.5,0.4,1.6,1.1c0.4,2.1,0.6,4.3,0.8,6.4c0.2,2.6,0.4,5.3,0.4,7.9C194,104.9,193.4,105.6,192.6,105.6
					z"/>
			</g>
		</g>
	</g>
	<path class="st0" d="M160.8,153.5V145c0-5.3-4.3-9.6-9.6-9.6h-17.6l-15.9,15.9c-0.3,0.3-0.6,0.4-0.9,0.4c0,0,0,0-0.1,0
		c-0.4,0-0.7-0.2-0.9-0.5l-6.2-7.8l-6.2,7.8c-0.2,0.3-0.6,0.5-0.9,0.5c0,0,0,0-0.1,0c-0.4,0-0.6-0.1-0.9-0.4l-15.9-15.9H68
		c-5.3,0-9.6,4.3-9.6,9.6v8.5h-2.5V145c0-6.7,5.4-12.1,12.1-12.1h25.8v-5.2l-0.4-0.1c-10.4-2.5-17.7-11.6-17.7-22.3v-7.8h-2.3
		c-4.7,0-8.5-3.8-8.5-8.5s3.8-8.5,8.5-8.5h2.3v-4.2c0-8.7,3.8-17.1,10.4-22.8l0.5-0.4l-0.5-0.4c-1.7-1.5-3.5-2.2-5.6-2.2
		c-0.6,0-1.2-0.5-1.3-1.1c-0.1-0.6,0.4-1.3,1-1.4c7.1-1.3,13.5-1.9,19-1.9c2.3,0,4.5,0.1,6.5,0.3l0.6,0.1v-0.3h6.7
		c16.7,0,30.2,13.5,30.2,30.2v4.1h2.3c4.7,0,8.5,3.8,8.5,8.5s-3.8,8.5-8.5,8.5h-2.3v7.8c0,10.7-7.3,19.9-17.7,22.3l-0.4,0.1v5.2
		h25.8c6.7,0,12.1,5.4,12.1,12.1v8.5L160.8,153.5L160.8,153.5z M111.6,141.8l5.4,6.7l13.1-13.1h-5.7L111.6,141.8z M102.2,148.5
		l5.4-6.7l-12.8-6.4h-5.7L102.2,148.5z M96.4,133.3l13.2,6.6l13.2-6.6V128l-0.6,0c-0.6,0-1.2,0.1-1.8,0.1H98.7c-0.6,0-1.1,0-1.8-0.1
		l-0.6,0L96.4,133.3L96.4,133.3z M95.4,125.3c0.5,0.1,1.1,0.1,1.6,0.2c0.5,0,1.1,0.1,1.7,0.1h21.7c0.6,0,1.2,0,1.7-0.1
		c0.5,0,1.1-0.1,1.6-0.2h0c9.9-1.7,17-10.1,17-20.1V85.1l-4.7,1.2v8.1c0,2.7-2.2,4.9-4.9,4.9h-14.5c-2.7,0-4.9-2.2-4.9-4.9v-7.8
		h-4.7v7.8c0,2.7-2.2,4.9-4.9,4.9H87.9c-2.7,0-4.9-2.2-4.9-4.9v-8.1l-4.7-1.2v20.1C78.3,115.2,85.5,123.7,95.4,125.3L95.4,125.3z
		 M114.5,94.3c0,1.3,1,2.3,2.3,2.3h14.5c1.3,0,2.3-1,2.3-2.3v-7.8h-19.2L114.5,94.3L114.5,94.3z M85.5,94.3c0,1.3,1,2.3,2.3,2.3
		h14.5c1.3,0,2.3-1,2.3-2.3v-7.8H85.5L85.5,94.3L85.5,94.3z M143.4,94.9h2.3c3.3,0,5.9-2.7,5.9-5.9c0-3.3-2.7-5.9-5.9-5.9h-2.3V94.9
		z M73.4,82.9c-3.3,0-5.9,2.7-5.9,5.9c0,3.3,2.7,5.9,5.9,5.9h2.3V82.9L73.4,82.9L73.4,82.9z M93.1,68.5c-4.2,0.1-7.6,3.6-7.6,7.8
		c0,2.4-1.1,4.8-3,6.4l-0.8,0.7l2.7,0.7h50.3l2.7-0.7l-0.8-0.7c-1.9-1.6-3-4-3-6.4c0-4.2-3.4-7.7-7.6-7.8H126l-16.1,3.6
		c-0.1,0-0.2,0-0.3,0c-0.1,0-0.2,0-0.3,0L93.1,68.5L93.1,68.5z M128.9,66.3l0.8,0.3c3.9,1.6,6.5,5.3,6.5,9.6c0,2.5,1.6,4.8,4,5.6
		l0.7,0.3v-5.8c0-5.4-1.6-10.7-4.6-15.3l-0.3-0.5L128.9,66.3z M87.8,55.4c-6.1,5.3-9.5,12.9-9.5,20.9v5.8l0.7-0.3
		c2.4-0.9,4-3.1,4-5.6c0-5,3.6-9.3,8.5-10.1L92,66l0-0.5c-0.3-3.6-1.5-7.2-3.3-10l-0.3-0.5L87.8,55.4z M99.6,48.4
		c-3.6,0-7.6,0.3-12,0.9l-1.3,0.2l1,0.8c4.8,3.8,6.8,10.7,7.1,15.5l0,0.4l15.1,3.3l15-3.3l0-0.5c-0.3-5.3-2-9.3-5.4-12.1
		C115,50.2,108.4,48.4,99.6,48.4z M118.6,50.2c0.9,0.5,1.5,1,2.1,1.5c3.4,2.9,5.5,6.9,6.2,11.9l0.1,1l7.3-6.1l-0.4-0.4
		c-4-4.5-9.1-7.6-15-8.9L118.6,50.2z"/>
</g>
<g>
	<path class="st0" d="M-465.7-273.2c-0.3,0-0.6-0.1-0.8-0.3c-0.4-0.3-0.6-0.8-0.6-1.3c0-0.5,0.4-0.9,0.8-1.1
		c2.8-1.3,5.7-2.2,8.7-2.6c0.1,0,0.1,0,0.2,0c0.4,0,0.9,0.2,1.1,0.5c0.3,0.4,0.4,0.9,0.2,1.4c-0.2,0.5-0.6,0.8-1.1,0.9
		c-2.8,0.4-5.4,1.1-7.9,2.3C-465.3-273.3-465.5-273.2-465.7-273.2L-465.7-273.2z"/>
	<path class="st0" d="M-481.1-210.9c-0.6,0-1.1-0.4-1.3-1c-0.8-2.3-1.2-4.8-1.2-7.2v-5.2c0-0.8,0.6-1.4,1.4-1.4
		c0.8,0,1.4,0.6,1.4,1.4v5c0,2.2,0.3,4.4,1,6.5c0.1,0.4,0.1,0.7-0.1,1.1c-0.2,0.3-0.5,0.6-0.8,0.7
		C-480.8-210.9-480.9-210.9-481.1-210.9L-481.1-210.9z"/>
	<path class="st0" d="M-482.2-230.7c-0.8,0-1.4-0.6-1.4-1.4v-16.6c0-3.3,0.5-6.6,1.6-9.7c1.8-5.2,5-9.9,9.3-13.4
		c0.3-0.2,0.6-0.3,0.9-0.3c0.2,0,0.3,0,0.5,0.1c0.5,0.2,0.8,0.6,0.9,1.1c0.1,0.5-0.1,1-0.5,1.3c-1.3,1-2.4,2.2-3.5,3.4
		c-4.1,4.9-6.4,11.1-6.4,17.5v16.6C-480.8-231.4-481.4-230.7-482.2-230.7z"/>
	<path class="st0" d="M-425.3-250.9c-0.7,0-1.3-0.5-1.4-1.2c-1.7-12.1-10.9-21.6-23-23.5c-0.5-0.1-0.9-0.4-1.1-0.9
		c-0.2-0.5-0.1-1,0.2-1.4c0.3-0.3,0.7-0.5,1.1-0.5c0.1,0,0.1,0,0.2,0c6.5,1,12.4,4.1,17,8.7c4.6,4.7,7.5,10.6,8.4,17.1
		c0.1,0.8-0.4,1.5-1.2,1.6C-425.2-250.9-425.2-250.9-425.3-250.9z"/>
	<path class="st0" d="M-442.4-195.5c-0.3,0-0.5-0.1-0.8-0.2c-0.1-0.1-0.9-0.8-14.1-11.5l-2.1-1.8c-5.3-4.3-8.4-10.8-8.3-17.6
		c0-4.7,0-9.2,0-12.9v-9.3c0-0.3,0-0.7,0.1-1v0c0.2-2.9,1.3-5.8,3.3-8.1c2.2-2.6,5.2-4.3,8.5-4.9c0.8-0.1,1.6-0.2,2.4-0.2h0.1
		c7.7,0,13.9,6.1,14.2,13.8v0c0,0.1,0,0.3,0,0.4v9.9c0,3.5,0.9,7,2.7,10.1c0.3,0.5,0.3,1,0,1.5c-0.3,0.4-0.7,0.7-1.2,0.7l0,0
		c-0.5,0-1-0.3-1.3-0.8c-2-3.5-3-7.4-3-11.4v-10.1v0c0-0.1,0-0.1,0-0.2v0c-0.2-6.2-5.2-11.1-11.4-11.1h-0.1c-0.6,0-1.3,0.1-1.9,0.2
		c-2.7,0.5-5.1,1.9-6.8,3.9c-1.5,1.8-2.5,4.2-2.6,6.6c0,0.3,0,0.5,0,0.7v9.3c0,3.7,0,8.1,0,12.7c0,6.1,2.6,11.7,7.3,15.6l2.2,1.7
		c8.1,6.7,13.6,11.1,14,11.4c0.5,0.4,0.7,1,0.5,1.6C-441.3-195.8-441.8-195.5-442.4-195.5L-442.4-195.5z"/>
	<g>
		<path class="st0" d="M-437.4-201.6c-0.1,0-0.3,0-0.4-0.1c-0.3-0.1-0.3-0.1-1.9-1.4l-1.9-1.6c0,0-0.1-0.1-0.1-0.1l0,0l0,0
			c-2.7-2.2-6.2-5.1-9.7-7.9c-5.3-4.3-8.4-10.8-8.4-17.6v-2.6c0-3.9,0-7.4,0-10.3v-5.5c0-1.7,0.7-3.3,1.8-4.5
			c1.1-1.1,2.5-1.8,4.1-1.9c0.1,0,0.2,0,0.3,0c1.6,0,3.1,0.6,4.3,1.7c1.4,1.3,2.1,3.1,2.1,4.9v3.1c0,2.5,0,6.1,0,10.2v0.2
			c0,5.9,2.7,11.5,7.3,15.3c0.8,0.7,1.6,1.3,2.3,1.9c0.6,0.5,0.7,1.4,0.2,2c-0.3,0.3-0.7,0.5-1.1,0.5c-0.3,0-0.6-0.1-0.9-0.3
			c-0.7-0.6-1.5-1.3-2.3-1.9c-5.2-4.3-8.2-10.7-8.3-17.5v-0.2c0-4.2,0-7.7,0-10.2v-3.1c0-1.1-0.5-2.2-1.3-2.9c-0.6-0.6-1.5-1-2.4-1
			c0,0-0.1,0-0.1,0c-0.9,0.1-1.7,0.4-2.3,1c-0.6,0.6-1,1.6-1,2.5v5.6c0,2.8,0,6.3,0,10.3v2.6c0,6,2.7,11.6,7.3,15.4
			c3.9,3.2,7.4,6.1,9.9,8c0,0,0.1,0.1,0.1,0.1l0,0l2.4,1.9c0.4,0.3,0.6,0.5,0.8,0.6l0,0c0.6,0.4,0.8,1.1,0.5,1.8
			C-436.4-201.9-436.9-201.6-437.4-201.6L-437.4-201.6z"/>
		<path class="st0" d="M-481.4-300.9c-0.6,0-1.2-0.4-1.4-1.1c-0.1-0.6,0.1-1.3,0.7-1.6c8.6-4.4,18.3-6.7,27.9-6.7
			c4.4,0,8.8,0.5,13.1,1.4c0.4,0.1,0.7,0.3,0.9,0.6c0.2,0.3,0.3,0.7,0.2,1c-0.1,0.6-0.7,1.1-1.4,1.1c-0.1,0-0.2,0-0.3,0
			c-4.1-0.9-8.3-1.4-12.5-1.4c-9.2,0-18.4,2.2-26.7,6.4C-481-301-481.2-300.9-481.4-300.9L-481.4-300.9z"/>
	</g>
	<path class="st0" d="M-426.3-300.6c-0.2,0-0.5-0.1-0.6-0.2c-2.3-1.2-4.8-2.3-7.3-3.2c-0.7-0.3-1.1-1.1-0.8-1.8
		c0.2-0.5,0.7-0.9,1.3-0.9c0.2,0,0.3,0,0.5,0.1c2.6,0.9,5.2,2.1,7.6,3.4c0.4,0.2,0.7,0.7,0.8,1.2c0,0.5-0.2,1-0.6,1.3
		C-425.8-300.7-426-300.6-426.3-300.6L-426.3-300.6z"/>
	<path class="st0" d="M-491.3-283.4c-0.6,0-1.1-0.3-1.3-0.9c-0.2-0.5-0.1-1.1,0.3-1.5c10-10.5,24.2-16.6,38.7-16.6
		c4.7,0,9.4,0.6,13.9,1.9c0.5,0.1,0.9,0.5,1,1c0.1,0.5,0,1-0.4,1.4c-0.3,0.3-0.6,0.4-1,0.4c-0.1,0-0.3,0-0.4-0.1
		c-4.3-1.1-8.7-1.8-13.2-1.8c-13.8,0-27.2,5.7-36.7,15.7C-490.6-283.6-490.9-283.4-491.3-283.4z"/>
	<path class="st0" d="M-412.3-279.4c-0.4,0-0.8-0.2-1.1-0.5c-5.2-6.7-12-12-19.8-15.4c0,0-0.1,0-0.1-0.1l0,0l0,0
		c-0.1,0-0.2-0.1-0.3-0.2c0-0.1-0.1-0.1-0.1-0.2l0,0l0,0c0-0.1-0.1-0.1-0.1-0.2c0-0.1,0-0.2-0.1-0.3v-0.1v-0.1c0,0,0-0.1,0-0.1
		c0-0.1,0-0.1,0-0.2v0v0c0-0.1,0-0.1,0-0.2c0,0,0-0.1,0.1-0.1l0,0l0,0c0-0.1,0.1-0.2,0.2-0.3c0.1,0,0.1-0.1,0.2-0.1l0.1,0l0.1,0
		c0.1-0.1,0.3-0.1,0.4-0.1h0.1l0.1,0c0,0,0.1,0,0.1,0c0.1,0,0.1,0,0.2,0h0h0c0.1,0,0.1,0,0.2,0h0c8.2,3.6,15.4,9.2,20.9,16.3
		c0.4,0.6,0.3,1.5-0.3,1.9C-411.7-279.5-412-279.4-412.3-279.4z"/>
	<g>
		<path class="st0" d="M-479.6-283.2c-0.5,0-0.9-0.2-1.1-0.6c-0.5-0.6-0.3-1.5,0.3-2c4.1-3,8.7-5.3,13.6-6.8c0.1,0,0.3-0.1,0.4-0.1
			c0.4,0,0.7,0.1,1,0.4c0.4,0.4,0.5,0.9,0.4,1.4c-0.1,0.5-0.5,0.9-1,1c-4.6,1.4-8.9,3.5-12.8,6.4
			C-479-283.3-479.3-283.2-479.6-283.2L-479.6-283.2z"/>
		<path class="st0" d="M-495.8-261.1c-0.1,0-0.3,0-0.4-0.1c-0.7-0.3-1.1-1-0.9-1.8c2-6.3,5.6-12.2,10.1-17.1c0.3-0.3,0.6-0.5,1-0.5
			c0.1,0,0.2,0,0.3,0c0.5,0.1,0.9,0.5,1,1c0.1,0.5,0,1-0.3,1.4c-4.3,4.6-7.6,10.1-9.5,16C-494.6-261.4-495.2-261.1-495.8-261.1
			L-495.8-261.1z"/>
	</g>
	<path class="st0" d="M-409.5-252.3c-0.7,0-1.3-0.5-1.4-1.3c-2.4-21.8-20.7-38.2-42.6-38.2h-0.1c-1.6,0-3.2,0.1-4.8,0.3
		c-0.1,0-0.1,0-0.2,0c-0.4,0-0.9-0.2-1.1-0.6c-0.3-0.4-0.4-0.9-0.1-1.4c0.2-0.5,0.6-0.8,1.1-0.8c1.7-0.2,3.4-0.3,5.1-0.3h0.1
		c23.3,0,42.8,17.5,45.4,40.7c0.1,0.8-0.5,1.5-1.3,1.5C-409.4-252.3-409.5-252.3-409.5-252.3z"/>
	<path class="st0" d="M-417.2-250.5c-0.7,0-1.3-0.5-1.4-1.3c-0.6-7.6-3.8-14.9-8.9-20.6c-0.5-0.6-0.5-1.5,0.1-2
		c0.3-0.2,0.6-0.4,0.9-0.4c0.4,0,0.8,0.2,1,0.5c5.4,6.1,8.9,14,9.6,22.2c0,0.4-0.1,0.8-0.3,1c-0.2,0.3-0.6,0.5-0.9,0.5L-417.2-250.5
		L-417.2-250.5z"/>
	<path class="st0" d="M-490.1-240.4c-0.7,0-1.3-0.6-1.4-1.3c0-0.3,0-2.9,0-7c0-0.7,0-1.4,0-2c0.3-4.7,1.4-9.3,3.4-13.7
		c6.1-13.5,19.6-22.3,34.4-22.3c0.4,0,0.7,0,1.1,0c0.8,0,1.4,0.7,1.4,1.4c0,0.8-0.6,1.4-1.4,1.4c-0.4,0-0.7,0-1,0
		c-13.7,0-26.2,8.1-31.9,20.6c-1.8,4-2.9,8.2-3.1,12.6c0,0.6,0,1.2,0,1.9c0,1,0,6.3,0,6.8C-488.6-241.1-489.3-240.5-490.1-240.4
		L-490.1-240.4z"/>
	<g>
		<path class="st0" d="M-432.6-277.4c-0.3,0-0.6-0.1-0.8-0.3c-3.3-2.3-6.8-3.9-10.7-5l-0.7-0.2c-0.7-0.2-1.1-0.9-1-1.7
			c0.1-0.6,0.7-1.1,1.4-1.1c0.1,0,0.2,0,0.3,0l0.7,0.2c4.2,1.1,8.1,2.9,11.6,5.4c0.3,0.2,0.5,0.5,0.6,0.9c0.1,0.4,0,0.8-0.2,1
			C-431.7-277.6-432.1-277.4-432.6-277.4L-432.6-277.4z"/>
		<path class="st0" d="M-452.3-193.3c-0.3,0-0.6-0.1-0.9-0.3c-2.5-2-5.7-4.7-9.2-7.5l-5-4.1c-5.3-4.3-8.3-10.8-8.3-17.6v-25.9
			c0-1,0.1-1.9,0.2-2.9c0.4-3,1.3-5.8,2.9-8.4c1.7-2.9,4.1-5.4,6.9-7.2c3.6-2.4,7.8-3.6,12.2-3.6c3.7,0,7.5,1,10.7,2.8
			c7.2,4,11.6,11.6,11.4,19.9v5.7c0,0.9,0.1,1.7,0.2,2.5c0.1,0.8-0.4,1.5-1.2,1.6c-0.1,0-0.1,0-0.2,0c-0.7,0-1.3-0.5-1.4-1.2
			c-0.1-0.9-0.2-1.9-0.2-2.8v-5.8c0.2-10-7.2-18.5-17.2-19.7c-0.7-0.1-1.4-0.1-2.1-0.1c-6.8,0-13.2,3.6-16.7,9.5
			c-1.4,2.3-2.2,4.7-2.5,7.3c-0.1,0.8-0.2,1.6-0.2,2.5v25.8c0,6.1,2.6,11.7,7.3,15.6l5.2,4.3c3.4,2.8,6.5,5.4,9,7.3
			c0.3,0.3,0.5,0.6,0.5,0.9c0,0.4-0.1,0.8-0.3,1C-451.5-193.4-451.9-193.3-452.3-193.3z"/>
		<path class="st0" d="M-405.2-193.3c-13.8,0-25.1-11.2-25.1-25.1c0-13.8,11.2-25.1,25-25.1c13.8,0,25.1,11.3,25.1,25.1
			C-380.2-204.6-391.4-193.3-405.2-193.3L-405.2-193.3z M-405.2-240.6c-12.3,0-22.3,10-22.3,22.2c0,12.3,10,22.3,22.2,22.3
			c12.3,0,22.3-10,22.3-22.3C-383-230.7-392.9-240.6-405.2-240.6L-405.2-240.6z"/>
	</g>
	<path class="st0" d="M-411.2-205.9c-0.9,0-1.8-0.4-2.4-1l-6.5-6.5c-0.5-0.5-0.5-1.4,0-2c0.3-0.3,0.6-0.4,1-0.4c0.4,0,0.7,0.1,1,0.4
		l6.9,6.9l18.7-18.7c0.3-0.3,0.6-0.4,1-0.4c0.4,0,0.7,0.1,1,0.4c0.5,0.5,0.5,1.4,0,2l-18.3,18.3
		C-409.5-206.3-410.3-205.9-411.2-205.9z"/>
</g>
<g>
	<g>
		<g class="st2">
			<g>
				<path class="st0" d="M-515.5-261.7h-2.9c-0.8,0-1.4-0.6-1.4-1.4c0-0.8,0.6-1.4,1.4-1.4h2.9c0.8,0,1.4,0.6,1.4,1.4
					C-514.1-262.3-514.7-261.7-515.5-261.7z"/>
				<path class="st0" d="M-504.1-261.7h-3.3c-0.8,0-1.4-0.6-1.4-1.4c0-0.8,0.6-1.4,1.4-1.4h3.3c0.8,0,1.4,0.6,1.4,1.4
					C-502.7-262.3-503.3-261.7-504.1-261.7z"/>
			</g>
			<g>
				<path class="st0" d="M-511.3-254.4c-0.8,0-1.4-0.6-1.4-1.4v-2.9c0-0.8,0.6-1.4,1.4-1.4c0.8,0,1.4,0.6,1.4,1.4v2.9
					C-510-255-510.6-254.4-511.3-254.4z"/>
				<path class="st0" d="M-511.3-265.5c-0.8,0-1.4-0.6-1.4-1.4v-3.3c0-0.8,0.6-1.4,1.4-1.4c0.8,0,1.4,0.6,1.4,1.4v3.3
					C-510-266.1-510.6-265.5-511.3-265.5z"/>
			</g>
		</g>
		<g class="st2">
			<g>
				<path class="st0" d="M-423.5-177.8h-2.9c-0.8,0-1.4-0.6-1.4-1.4c0-0.8,0.6-1.4,1.4-1.4h2.9c0.8,0,1.4,0.6,1.4,1.4
					C-422.1-178.4-422.7-177.8-423.5-177.8z"/>
				<path class="st0" d="M-412.1-177.8h-3.3c-0.8,0-1.4-0.6-1.4-1.4c0-0.8,0.6-1.4,1.4-1.4h3.3c0.8,0,1.4,0.6,1.4,1.4
					C-410.7-178.4-411.3-177.8-412.1-177.8z"/>
			</g>
			<g>
				<path class="st0" d="M-419.3-170.5c-0.8,0-1.4-0.6-1.4-1.4v-2.9c0-0.8,0.6-1.4,1.4-1.4c0.8,0,1.4,0.6,1.4,1.4v2.9
					C-417.9-171.1-418.6-170.5-419.3-170.5z"/>
				<path class="st0" d="M-419.3-181.6c-0.8,0-1.4-0.6-1.4-1.4v-3.3c0-0.8,0.6-1.4,1.4-1.4c0.8,0,1.4,0.6,1.4,1.4v3.3
					C-417.9-182.2-418.6-181.6-419.3-181.6z"/>
			</g>
		</g>
		<g class="st2">
			<g>
				<path class="st0" d="M-410.8-332.9h-2.9c-0.8,0-1.4-0.6-1.4-1.4c0-0.8,0.6-1.4,1.4-1.4h2.9c0.8,0,1.4,0.6,1.4,1.4
					C-409.4-333.5-410-332.9-410.8-332.9z"/>
				<path class="st0" d="M-399.3-332.9h-3.3c-0.8,0-1.4-0.6-1.4-1.4c0-0.8,0.6-1.4,1.4-1.4h3.3c0.8,0,1.4,0.6,1.4,1.4
					C-397.9-333.5-398.5-332.9-399.3-332.9z"/>
			</g>
			<g>
				<path class="st0" d="M-406.6-325.6c-0.8,0-1.4-0.6-1.4-1.4v-2.9c0-0.8,0.6-1.4,1.4-1.4c0.8,0,1.4,0.6,1.4,1.4v2.9
					C-405.2-326.2-405.9-325.6-406.6-325.6z"/>
				<path class="st0" d="M-406.6-336.7c-0.8,0-1.4-0.6-1.4-1.4v-3.3c0-0.8,0.6-1.4,1.4-1.4c0.8,0,1.4,0.6,1.4,1.4v3.3
					C-405.2-337.3-405.9-336.7-406.6-336.7z"/>
			</g>
		</g>
		<path class="st1" d="M-541.9-218.4c-2.5,0-4.5-2-4.5-4.5s2-4.5,4.5-4.5c2.5,0,4.5,2,4.5,4.5C-537.4-220.4-539.4-218.4-541.9-218.4
			z M-541.9-224.6c-0.9,0-1.7,0.8-1.7,1.7c0,0.9,0.8,1.7,1.7,1.7s1.7-0.8,1.7-1.7C-540.2-223.8-540.9-224.6-541.9-224.6z"/>
		<g class="st2">
			<path class="st0" d="M-471-327.3c-0.6,0-1.1-0.4-1.3-1c-0.2-0.7,0.2-1.5,0.9-1.7c8.4-2.6,17.1-3.9,26-3.9
				c6.9,0,13.8,0.8,20.5,2.4c0.8,0.2,1.2,0.9,1,1.7c-0.2,0.8-0.9,1.2-1.7,1c-6.5-1.5-13.2-2.3-19.9-2.3c-8.6,0-17.1,1.3-25.2,3.8
				C-470.7-327.3-470.9-327.3-471-327.3z"/>
			<path class="st0" d="M-504.5-307.7c-0.4,0-0.7-0.1-1-0.4c-0.5-0.5-0.5-1.4,0.1-2c1.4-1.3,2.8-2.5,4.2-3.8
				c0.6-0.5,1.5-0.4,1.9,0.2c0.5,0.6,0.4,1.5-0.2,1.9c-1.4,1.1-2.8,2.4-4.1,3.6C-503.8-307.8-504.1-307.7-504.5-307.7z"/>
			<path class="st0" d="M-530.8-234.2c-0.7,0-1.3-0.5-1.4-1.2c-0.5-3.7-0.7-7.4-0.7-11.1s0.3-7.4,0.7-11.1c1.4-11.3,5-22.1,10.6-32
				c0.4-0.7,1.2-0.9,1.9-0.5c0.7,0.4,0.9,1.2,0.5,1.9c-5.4,9.6-8.9,20-10.3,31c-0.4,3.5-0.7,7.1-0.7,10.7c0,3.6,0.2,7.2,0.7,10.8
				c0.1,0.8-0.4,1.4-1.2,1.5C-530.7-234.2-530.7-234.2-530.8-234.2z"/>
			<path class="st0" d="M-488.4-170.5c-0.3,0-0.5-0.1-0.7-0.2c-3.4-1.9-6.6-4.1-9.7-6.5c-0.6-0.5-0.7-1.3-0.3-1.9
				c0.5-0.6,1.3-0.7,1.9-0.3c3,2.3,6.1,4.4,9.4,6.3c0.6,0.4,0.9,1.2,0.5,1.9C-487.4-170.8-487.9-170.5-488.4-170.5z"/>
			<path class="st0" d="M-445.4-159.1c-7.8,0-15.5-1-23-3c-0.8-0.2-1.2-1-1-1.7c0.2-0.8,1-1.2,1.7-1c7.2,2,14.7,2.9,22.3,2.9
				c6.1,0,12.2-0.6,18.1-1.9c0.8-0.2,1.5,0.3,1.6,1c0.2,0.8-0.3,1.5-1,1.6C-432.8-159.7-439.1-159.1-445.4-159.1z"/>
			<path class="st0" d="M-403.2-170.1c-0.5,0-1-0.3-1.2-0.7c-0.4-0.7-0.1-1.5,0.5-1.9c2.1-1.2,4.1-2.4,6.1-3.8
				c0.6-0.4,1.5-0.3,1.9,0.4c0.4,0.6,0.3,1.5-0.4,1.9c-2,1.4-4.1,2.7-6.3,3.9C-402.8-170.1-403-170.1-403.2-170.1z"/>
			<path class="st0" d="M-381.6-187.4c-0.3,0-0.6-0.1-0.9-0.4c-0.6-0.5-0.6-1.4-0.1-2c9.4-10.4,16.2-23.2,19.5-36.8
				c0.2-0.8,0.9-1.2,1.7-1c0.8,0.2,1.2,0.9,1,1.7c-3.4,14.1-10.4,27.2-20.1,38C-380.8-187.6-381.2-187.4-381.6-187.4z"/>
			<path class="st0" d="M-359.4-245.1c-0.8,0-1.4-0.6-1.4-1.4c0-2.5-0.1-5.1-0.3-7.6c-0.2-2.1-0.4-4.2-0.8-6.2
				c-0.1-0.8,0.4-1.5,1.1-1.6c0.8-0.1,1.5,0.4,1.6,1.1c0.4,2.1,0.6,4.3,0.8,6.4c0.2,2.6,0.4,5.3,0.4,7.9
				C-358-245.7-358.6-245.1-359.4-245.1z"/>
		</g>
	</g>
</g>
</svg>
