<svg width="80" height="80" viewBox="0 0 80 80" fill="none" xmlns="http://www.w3.org/2000/svg">
<circle cx="40" cy="40" r="40" fill="#0E94CE"/>
<path d="M30.7845 30.9069C30.7845 25.9163 34.8457 21.8551 39.8363 21.8551C44.8269 21.8551 48.8881 25.9163 48.8881 30.9069C48.8881 35.8974 44.8269 39.9586 39.8363 39.9586C34.8457 39.9586 30.7845 35.8974 30.7845 30.9069Z" fill="white" fill-opacity="0.5" stroke="white" stroke-width="1.3"/>
<path d="M41.9923 43.4146C45.5533 43.4146 48.9084 44.8283 51.4441 47.4029C53.9681 49.9657 55.3559 53.3447 55.3559 56.9221C55.3559 57.1584 55.1643 57.35 54.928 57.35H24.7447C24.5083 57.35 24.3167 57.1584 24.3167 56.9221C24.3167 53.3447 25.7045 49.9657 28.2285 47.4029L27.7654 46.9468L28.2285 47.4029C30.7643 44.8283 34.1194 43.4146 37.6804 43.4146H41.9923Z" fill="white" fill-opacity="0.5" stroke="white" stroke-width="1.3"/>
<circle cx="49.8235" cy="25.4103" r="8.41026" fill="#00C368"/>
<path d="M46.4594 25.2008L48.9825 27.7239L54.0286 22.6777" stroke="white" stroke-width="1.5"/>
</svg>
