<?xml version="1.0" encoding="utf-8"?>
<!-- Generator: Adobe Illustrator 25.2.2, SVG Export Plug-In . SVG Version: 6.00 Build 0)  -->
<svg version="1.1" id="Livello_1" xmlns="http://www.w3.org/2000/svg" xmlns:xlink="http://www.w3.org/1999/xlink" x="0px" y="0px"
	 width="103" height="93" viewBox="0 0 140 140" style="enable-background:new 0 0 140 140;" xml:space="preserve">
<style type="text/css">
	.st0{fill:#00A3DF;}
	.st1{fill:none;stroke:#EFEFEF;stroke-miterlimit:10;}
	.st2{fill:#FFFFFF;}
</style>
<circle class="st0" cx="70" cy="70" r="62"/>
<circle class="st1" cx="70" cy="70" r="68"/>
<g>
	<g>
		<g>
			<path class="st2" d="M69.7,94H36.8V81.3c0-6.1,5-11.1,11.1-11.1h15.3c12.2,0.1,22.1-9.8,22.2-22s-9.8-22.1-22-22.2
				s-22.1,9.8-22.2,22c0,5.4,2,10.7,5.6,14.7c-9.8,0.6-17.5,8.7-17.5,18.6v16.3c0,2,1.7,3.7,3.7,3.7h36.6c2,0,3.7-1.7,3.7-3.7
				C73.4,95.6,71.8,94,69.7,94L69.7,94z M63.3,33.7c8,0.2,14.4,6.9,14.2,15c-0.2,7.6-6.2,13.7-13.7,14.1h-1.2
				c-8-0.5-14.1-7.4-13.6-15.4C49.4,39.7,55.7,33.8,63.3,33.7L63.3,33.7z"/>
		</g>
	</g>
	<path class="st2" d="M87.9,89.3c1,1,2.6,1,3.6,0l6.8-6.8c1-1,0.9-2.6-0.1-3.6c-1-0.9-2.5-0.9-3.5,0l-5,5l-2.3-2.3
		c-1-1-2.6-0.9-3.6,0.1c-0.9,1-0.9,2.5,0,3.5L87.9,89.3z"/>
	<path class="st2" d="M110.5,81L110.5,81c-0.6-5.1-3.3-10-7.8-13.3c-2.3-1.7-5-3-7.7-3.6l0,0c-9.7-1.9-19.2,3.7-22.3,12.8
		c0,0,0,0.1,0,0.1l0,0c-0.3,0.8-0.4,1.5-0.6,2.3c-1.5,7.6,1.6,15.2,7.4,19.6l0,0c8.6,6.4,20.8,4.6,27.2-4c1.6-2.2,2.7-4.5,3.3-7
		C110.6,85.7,110.7,83.3,110.5,81z M77.1,86.1c-0.4-2.1-0.4-4.3,0.1-6.3c1.9-7.6,9.6-12.3,17.3-10.5c7.7,1.9,12.5,9.6,10.7,17.3
		c0,0.1,0,0.1-0.1,0.2c-1.3,5.1-5.4,9.2-10.9,10.4C86.3,98.8,78.7,93.9,77.1,86.1z"/>
</g>
</svg>
