<?xml version="1.0" encoding="utf-8"?>
<!-- Generator: Adobe Illustrator 25.2.2, SVG Export Plug-In . SVG Version: 6.00 Build 0)  -->
<svg version="1.1" id="Livello_1" xmlns="http://www.w3.org/2000/svg" xmlns:xlink="http://www.w3.org/1999/xlink" x="0px" y="0px"
	 width="103" height="93" viewBox="0 0 140 140" style="enable-background:new 0 0 140 140;" xml:space="preserve">
<style type="text/css">
	.st0{fill:#00A3DF;}
	.st1{fill:none;stroke:#EFEFEF;stroke-miterlimit:10;}
	.st2{fill:#FFFFFF;}
</style>
<circle class="st0" cx="70" cy="70" r="62"/>
<circle class="st1" cx="70" cy="70" r="68"/>
<g>
	<path class="st2" d="M4271.1-365c-0.9,0-1.7-0.3-2.3-1c-0.6-0.6-1-1.4-1-2.3v-15.6c0-1.8,1.5-3.2,3.2-3.2c0.9,0,1.7,0.3,2.3,1
		c0.6,0.6,1,1.4,1,2.3v15.6C4274.3-366.5,4272.8-365,4271.1-365z M4282.1-372.8c-0.8,0-1.6-0.3-2.2-0.9c-0.6-0.6-1-1.4-1-2.4v-4.6
		c0-1.8,1.5-3.2,3.2-3.2c1.8,0,3.2,1.5,3.2,3.2v4.6c0,0.9-0.3,1.7-1,2.3C4283.7-373.2,4282.9-372.8,4282.1-372.8z M4260.3-372.8
		c-0.9,0-1.7-0.3-2.3-1c-0.6-0.6-1-1.4-1-2.3v-4.6c0-1.8,1.5-3.2,3.2-3.2c0.9,0,1.7,0.3,2.3,1c0.6,0.6,1,1.4,1,2.3v4.6
		C4263.5-374.3,4262-372.8,4260.3-372.8L4260.3-372.8z M4297.4-385.8c-1.9,0-3.6-0.7-5.1-2l-5.4-5.1c-1.7,1.9-4.1,3.1-6.7,3.1h-18.3
		c-2.6,0-5-1.1-6.7-3.1l-5.4,5.1c-1.4,1.3-3.2,2-5.1,2c-2.1,0-4.1-0.9-5.5-2.4c-1.4-1.5-2.1-3.4-2-5.5l0.6-12.6
		c0.3-5.3,3.4-10.1,8.2-12.4l2.4-1.1c-1-10.3,0.2-18.2,4.1-26.4c3.4-7.2,8.7-13.4,15.3-18l1.5-1.1c0.5-0.4,1.2-0.6,1.8-0.6
		c0.7,0,1.3,0.2,1.8,0.6l1.5,1.1c6.6,4.5,11.9,10.8,15.3,18c4.9,10.2,4.9,19.1,4.1,26.4l2.4,1.1c4.8,2.3,7.9,7.1,8.2,12.4l0.6,12.6
		c0.1,2.1-0.6,4-2,5.5C4301.5-386.7,4299.5-385.8,4297.4-385.8L4297.4-385.8z M4296.8-392.5c0.3,0.2,0.5,0.3,0.7,0.3
		c0.3,0,0.6-0.1,0.8-0.3c0.1-0.1,0.3-0.4,0.3-0.8l-0.6-12.6c-0.1-2.9-1.9-5.6-4.5-6.9l-0.4-0.2c-0.8,4.7-1.9,9.3-3.3,13.8
		L4296.8-392.5z M4248.7-412.8c-2.7,1.3-4.4,3.9-4.5,6.9l-0.6,12.6c0,0.4,0.1,0.6,0.3,0.8c0.2,0.2,0.5,0.3,0.8,0.3
		c0.2,0,0.4-0.1,0.7-0.3l7.1-6.7c-1.4-4.5-2.5-9.1-3.3-13.8L4248.7-412.8z M4279.5-396.3c0.3,0,0.5,0,0.6,0l0,0c1,0,2-0.7,2.3-1.6
		c2.8-8.1,4.5-16.6,5.2-25.1c0.5-7-0.8-14-3.8-20.3c-2.9-6-7.3-11.3-12.8-15.2c-11.3,8-17.6,21.5-16.6,35.2
		c0.4,5.4,1.2,10.6,2.4,15.8h20.1c0.9,0,1.7,0.3,2.3,1c0.6,0.6,1,1.4,1,2.3c0,0.9-0.3,1.7-1,2.3s-1.4,1-2.3,1h-18.3
		c0.3,1.1,0.7,2.2,1,3.2c0.3,1,1.3,1.6,2.3,1.6c9.3,0,13.8,0,16.1,0L4279.5-396.3z"/>
	<path class="st2" d="M4260.2-431c0,9.6,11.7,14.5,18.5,7.7c6.8-6.8,2-18.5-7.7-18.5C4265.1-441.8,4260.2-437,4260.2-431L4260.2-431
		z M4276.9-431c0,3.2-2.6,5.8-5.8,5.8s-5.8-2.6-5.8-5.8s2.6-5.8,5.8-5.8S4276.9-434.2,4276.9-431L4276.9-431z"/>
</g>
<g>
	<path class="st2" d="M70,120.4c-0.9,0-1.7-0.3-2.3-1c-0.6-0.6-1-1.4-1-2.3v-15.6c0-1.8,1.5-3.2,3.2-3.2c0.9,0,1.7,0.3,2.3,1
		c0.6,0.6,1,1.4,1,2.3v15.6C73.2,118.9,71.8,120.4,70,120.4z M81,112.6c-0.8,0-1.6-0.3-2.2-0.9c-0.6-0.6-1-1.4-1-2.4v-4.6
		c0-1.8,1.5-3.2,3.2-3.2c1.8,0,3.2,1.5,3.2,3.2v4.6c0,0.9-0.3,1.7-1,2.3C82.6,112.2,81.8,112.6,81,112.6z M59.2,112.6
		c-0.9,0-1.7-0.3-2.3-1c-0.6-0.6-1-1.4-1-2.3v-4.6c0-1.8,1.5-3.2,3.2-3.2c0.9,0,1.7,0.3,2.3,1c0.6,0.6,1,1.4,1,2.3v4.6
		C62.4,111.1,61,112.6,59.2,112.6L59.2,112.6z M96.4,99.6c-1.9,0-3.6-0.7-5.1-2l-5.4-5.1c-1.7,1.9-4.1,3.1-6.7,3.1H60.9
		c-2.6,0-5-1.1-6.7-3.1l-5.4,5.1c-1.4,1.3-3.2,2-5.1,2c-2.1,0-4.1-0.9-5.5-2.4c-1.4-1.5-2.1-3.4-2-5.5l0.6-12.6
		c0.3-5.3,3.4-10.1,8.2-12.4l2.4-1.1c-1-10.3,0.2-18.2,4.1-26.4c3.4-7.2,8.7-13.4,15.3-18l1.5-1.1c0.5-0.4,1.2-0.6,1.8-0.6
		c0.7,0,1.3,0.2,1.8,0.6l1.5,1.1c6.6,4.5,11.9,10.8,15.3,18c4.9,10.2,4.9,19.1,4.1,26.4l2.4,1.1c4.8,2.3,7.9,7.1,8.2,12.4l0.6,12.6
		c0.1,2.1-0.6,4-2,5.5C100.4,98.7,98.4,99.6,96.4,99.6L96.4,99.6z M95.7,92.8c0.3,0.2,0.5,0.3,0.7,0.3c0.3,0,0.6-0.1,0.8-0.3
		c0.1-0.1,0.3-0.4,0.3-0.8l-0.6-12.6c-0.1-2.9-1.9-5.6-4.5-6.9l-0.4-0.2c-0.8,4.7-1.9,9.3-3.3,13.8L95.7,92.8z M47.7,72.6
		c-2.7,1.3-4.4,3.9-4.5,6.9L42.6,92c0,0.4,0.1,0.6,0.3,0.8c0.2,0.2,0.5,0.3,0.8,0.3c0.2,0,0.4-0.1,0.7-0.3l7.1-6.7
		c-1.4-4.5-2.5-9.1-3.3-13.8L47.7,72.6z M78.5,89.1c0.3,0,0.5,0,0.6,0l0,0c1,0,2-0.7,2.3-1.6c2.8-8.1,4.5-16.6,5.2-25.1
		c0.5-7-0.8-14-3.8-20.3c-2.9-6-7.3-11.3-12.8-15.2c-11.3,8-17.6,21.5-16.6,35.2c0.4,5.4,1.2,10.6,2.4,15.8h20.1
		c0.9,0,1.7,0.3,2.3,1c0.6,0.6,1,1.4,1,2.3c0,0.9-0.3,1.7-1,2.3c-0.6,0.6-1.4,1-2.3,1H57.5c0.3,1.1,0.7,2.2,1,3.2
		c0.3,1,1.3,1.6,2.3,1.6c9.3,0,13.8,0,16.1,0L78.5,89.1z"/>
	<path class="st2" d="M59.2,54.4c0,9.6,11.7,14.5,18.5,7.7c6.8-6.8,2-18.5-7.7-18.5C64,43.6,59.2,48.4,59.2,54.4L59.2,54.4z
		 M75.8,54.4c0,3.2-2.6,5.8-5.8,5.8s-5.8-2.6-5.8-5.8c0-3.2,2.6-5.8,5.8-5.8C73.2,48.6,75.8,51.2,75.8,54.4L75.8,54.4z"/>
</g>
</svg>
