<svg width="32" height="32" viewBox="0 0 32 32" fill="none" xmlns="http://www.w3.org/2000/svg">
<path fill-rule="evenodd" clip-rule="evenodd" d="M16 0C7.16344 0 0 7.16344 0 16C0 24.8366 7.16344 32 16 32C24.8366 32 32 24.8366 32 16C32 7.16344 24.8366 0 16 0ZM12.4823 7.51835C13.3925 7.47693 13.6834 7.4668 16.0009 7.4668H15.9983C18.3165 7.4668 18.6063 7.47693 19.5165 7.51835C20.425 7.55995 21.0454 7.70378 21.5894 7.9148C22.1512 8.13258 22.6259 8.42414 23.1006 8.89881C23.5752 9.37313 23.8668 9.84922 24.0855 10.4105C24.2952 10.9531 24.4392 11.5732 24.4819 12.4816C24.5228 13.3918 24.5335 13.6827 24.5335 16.0002C24.5335 18.3178 24.5228 18.6079 24.4819 19.5181C24.4392 20.4262 24.2952 21.0465 24.0855 21.5893C23.8668 22.1503 23.5752 22.6264 23.1006 23.1007C22.6264 23.5754 22.151 23.8677 21.59 24.0856C21.047 24.2967 20.4262 24.4405 19.5178 24.4821C18.6075 24.5235 18.3176 24.5336 15.9999 24.5336C13.6825 24.5336 13.3918 24.5235 12.4816 24.4821C11.5733 24.4405 10.9531 24.2967 10.4101 24.0856C9.84922 23.8677 9.37313 23.5754 8.89899 23.1007C8.4245 22.6264 8.13294 22.1503 7.9148 21.5891C7.70395 21.0465 7.56013 20.4264 7.51835 19.5179C7.47711 18.6077 7.4668 18.3178 7.4668 16.0002C7.4668 13.6827 7.47746 13.3917 7.51818 12.4814C7.55906 11.5733 7.70307 10.9531 7.91462 10.4103C8.13329 9.84922 8.42485 9.37313 8.89952 8.89881C9.37384 8.42432 9.84993 8.13276 10.4112 7.9148C10.9538 7.70378 11.5739 7.55995 12.4823 7.51835Z" fill="#737F92"/>
<path fill-rule="evenodd" clip-rule="evenodd" d="M15.2353 9.00409C15.384 9.00385 15.5439 9.00393 15.7164 9.004L16.0008 9.00409C18.2793 9.00409 18.5493 9.01226 19.4491 9.05315C20.2811 9.0912 20.7326 9.23022 21.0334 9.34702C21.4317 9.50169 21.7156 9.68658 22.0141 9.98525C22.3127 10.2839 22.4976 10.5684 22.6526 10.9666C22.7694 11.267 22.9086 11.7186 22.9465 12.5506C22.9874 13.4502 22.9963 13.7204 22.9963 15.9978C22.9963 18.2751 22.9874 18.5453 22.9465 19.4449C22.9085 20.2769 22.7694 20.7285 22.6526 21.0289C22.498 21.4271 22.3127 21.7107 22.0141 22.0092C21.7154 22.3079 21.4318 22.4928 21.0334 22.6474C20.733 22.7648 20.2811 22.9034 19.4491 22.9415C18.5495 22.9824 18.2793 22.9913 16.0008 22.9913C13.7222 22.9913 13.4522 22.9824 12.5526 22.9415C11.7206 22.9031 11.2691 22.7641 10.9681 22.6472C10.5698 22.4926 10.2854 22.3077 9.98673 22.009C9.68806 21.7104 9.50317 21.4266 9.34815 21.0282C9.23135 20.7278 9.09215 20.2762 9.05428 19.4442C9.01339 18.5446 9.00521 18.2744 9.00521 15.9956C9.00521 13.7168 9.01339 13.448 9.05428 12.5485C9.09232 11.7165 9.23135 11.2649 9.34815 10.9641C9.50282 10.5659 9.68806 10.2814 9.98673 9.98276C10.2854 9.68409 10.5698 9.4992 10.9681 9.34418C11.2689 9.22684 11.7206 9.08818 12.5526 9.04995C13.3398 9.0144 13.6449 9.00373 15.2353 9.00195V9.00409ZM20.556 10.421C19.9907 10.421 19.532 10.8791 19.532 11.4447C19.532 12.01 19.9907 12.4687 20.556 12.4687C21.1213 12.4687 21.58 12.01 21.58 11.4447C21.58 10.8793 21.1213 10.4207 20.556 10.4207V10.421ZM11.6186 15.9999C11.6186 13.5798 13.5806 11.6177 16.0007 11.6176C18.4208 11.6176 20.3824 13.5797 20.3824 15.9999C20.3824 18.42 18.421 20.3812 16.0008 20.3812C13.5807 20.3812 11.6186 18.42 11.6186 15.9999Z" fill="#737F92"/>
<path fill-rule="evenodd" clip-rule="evenodd" d="M16.0007 13.1553C17.5716 13.1553 18.8452 14.4287 18.8452 15.9997C18.8452 17.5706 17.5716 18.8442 16.0007 18.8442C14.4297 18.8442 13.1562 17.5706 13.1562 15.9997C13.1562 14.4287 14.4297 13.1553 16.0007 13.1553V13.1553Z" fill="#737F92"/>
</svg>
