<svg width="1920" height="750" viewBox="0 0 1920 750" fill="none" xmlns="http://www.w3.org/2000/svg">
<g clip-path="url(#clip0)">
<rect width="1920" height="750" fill="#00A4E0"/>
<path d="M1238.34 237.734C1092.67 496.926 1276.5 782.988 1554.71 777.612C1512.67 854.409 1450.92 897.064 1369.87 912.346C1291.94 926.987 1219.26 908.252 1152.5 867.423C1011.06 782.164 934.387 598.817 974.952 444.663C1007.24 318.633 1107.94 238.315 1238.34 237.734Z" fill="#0E94CE"/>
<path d="M1645.72 965.571C1767.96 821.461 1809.4 666.802 1778.02 491.152C1775.96 479.5 1786.53 459.392 1797.41 451.946C1857.68 414.814 1919.46 380.309 1980.74 344.928C2051.18 507.364 1966.23 857.567 1645.72 965.571Z" fill="#0E94CE"/>
<path d="M1831.4 82.151C1766.62 119.553 1703.21 157.326 1639.17 191.966C1630.42 197.021 1612.1 193.592 1604.05 187.734C1469 73.1069 1314.71 30.2854 1136.3 60.9214C1317.32 -114.797 1673.97 -103.595 1831.4 82.151Z" fill="#0E94CE"/>
<path d="M333.475 225.877C381.418 311.182 320.915 405.331 229.352 403.562C243.187 428.837 263.511 442.876 290.188 447.905C315.834 452.724 339.755 446.558 361.727 433.12C408.277 405.06 433.512 344.717 420.162 293.982C409.534 252.503 376.391 226.068 333.475 225.877Z" fill="#0E94CE"/>
<path d="M199.398 465.423C159.168 417.993 145.529 367.092 155.856 309.282C156.533 305.447 153.055 298.829 149.475 296.378C129.639 284.158 109.304 272.801 89.1353 261.157C65.953 314.618 93.9138 429.876 199.398 465.423Z" fill="#0E94CE"/>
<path d="M138.288 174.671C159.609 186.981 180.476 199.413 201.554 210.813C204.435 212.477 210.465 211.348 213.115 209.421C257.562 171.694 308.341 157.601 367.06 167.684C307.481 109.852 190.102 113.538 138.288 174.671Z" fill="#0E94CE"/>
</g>
<defs>
<clipPath id="clip0">
<rect width="1920" height="750" fill="white"/>
</clipPath>
</defs>
</svg>
